<?xml version="1.0" encoding="utf-8"?>
<!-- Generator: Adobe Illustrator 16.0.0, SVG Export Plug-In . SVG Version: 6.00 Build 0)  -->
<!DOCTYPE svg PUBLIC "-//W3C//DTD SVG 1.1//EN" "http://www.w3.org/Graphics/SVG/1.1/DTD/svg11.dtd">
<svg version="1.1" id="Calque_1" xmlns="http://www.w3.org/2000/svg" xmlns:xlink="http://www.w3.org/1999/xlink" x="0px" y="0px"
	 width="300px" height="300px" viewBox="0 0 300 300" enable-background="new 0 0 300 300" xml:space="preserve">
<g>
	<g>
		<path d="M26.006,223.526c3.799-4.694,8.306-7.042,13.519-7.042c4.146,0,7.325,1.178,9.539,3.533
			c2.214,2.354,3.321,6.547,3.321,12.577l-0.282,12.481c0,3.989,0.047,6.408,0.141,7.257c0.094,0.847,0.542,1.584,1.342,2.214
			c0.802,0.626,1.594,0.958,2.379,0.987c0.849,0,1.272,0.188,1.272,0.565c0,0.565-0.69,0.848-2.073,0.848H41.22
			c-0.533-0.125-0.799-0.392-0.799-0.801c0-0.439,0.359-0.707,1.083-0.8c2.229-0.283,3.548-1.154,3.958-2.615
			c0.407-1.459,0.611-6.1,0.611-13.919c0-8.416-0.841-13.841-2.52-16.273c-1.679-2.434-3.902-3.653-6.666-3.653
			c-2.7,0-5.079,1.03-7.136,3.087c-2.057,2.058-3.273,5.08-3.651,9.068s-0.565,8.854-0.565,14.602c0,3.894,0.204,6.438,0.612,7.63
			c0.408,1.194,1.57,1.979,3.486,2.356c0.785,0.126,1.178,0.408,1.178,0.849c0,0.502-0.377,0.752-1.131,0.752l-9.515-0.187
			c-2.042,0-3.815,0.047-5.323,0.139c-0.942,0-1.413-0.25-1.413-0.752c0-0.439,0.377-0.707,1.131-0.801
			c1.507-0.189,2.527-0.612,3.062-1.271c0.535-0.659,0.99-3.194,1.366-7.604c0.377-4.407,0.565-10.047,0.565-16.919
			c0-12.27-0.055-20.311-0.165-24.124c-0.11-3.813-0.667-6.572-1.672-8.284c-1.005-1.709-2.23-2.706-3.674-2.988
			c-0.878-0.188-1.319-0.502-1.319-0.941c0-0.251,0.102-0.401,0.307-0.448c0.203-0.047,1.216-0.07,3.038-0.07
			c3.078,0,6.39-0.111,9.939-0.33l-0.141,23.422C25.865,219.051,25.912,221.536,26.006,223.526z"/>
		<path d="M87.478,250.043c3.423-9.287,5.622-15.602,6.594-18.943s1.46-6.016,1.46-8.024c0-2.604-1.632-4.048-4.899-4.33
			c-0.911-0.097-1.365-0.419-1.365-0.968c0-0.516,0.36-0.774,1.083-0.774c0.25,0,1.098,0.047,2.543,0.141
			c0.564,0.033,1.554,0.047,2.967,0.047c4.175,0,6.972-0.063,8.385-0.188c0.627-0.063,1.067-0.095,1.319-0.095
			c0.784,0,1.177,0.275,1.177,0.822c0,0.483-0.424,0.823-1.272,1.015c-2.512,0.564-4.498,2.394-5.959,5.484
			c-1.46,3.09-4.105,10.267-7.937,21.53c-3.738,11.012-6.745,18.96-9.021,23.841c-2.277,4.881-4.648,8.255-7.112,10.124
			c-2.466,1.867-4.892,2.801-7.278,2.801c-2.45,0-4.389-0.707-5.817-2.12c-1.429-1.414-2.144-2.858-2.144-4.333
			c0-1.195,0.479-2.246,1.438-3.156c0.958-0.91,1.938-1.365,2.944-1.365c2.574,0,3.972,1.287,4.192,3.863
			c0.124,1.726,0.895,2.59,2.308,2.59c2.261,0,4.781-2.37,7.561-7.108c2.779-4.739,4.168-8.443,4.168-11.109
			c0-2.104-1.076-5.806-3.227-11.108c-2.15-5.302-4.545-11.036-7.184-17.201c-2.637-6.166-4.436-9.789-5.393-10.871
			c-0.958-1.083-2.002-1.706-3.133-1.87c-1.036-0.133-1.554-0.46-1.554-0.984c0-0.625,0.377-0.937,1.131-0.937
			c0.313,0,0.675,0.035,1.083,0.104c1.821,0.244,3.909,0.366,6.264,0.366c5.025,0,8.087-0.099,9.186-0.299
			c0.66-0.113,1.115-0.172,1.366-0.172c0.786,0,1.178,0.299,1.178,0.896c0,0.502-0.691,0.926-2.072,1.271
			c-2.481,0.661-3.721,1.852-3.721,3.577C76.738,224.033,80.318,233.194,87.478,250.043z"/>
		<path d="M122.807,216.673c0.157,1.352,0.235,2.576,0.235,3.674c0,0.942-0.078,2.309-0.235,4.099
			c3.108-2.951,5.487-4.859,7.136-5.724c1.649-0.864,3.493-1.294,5.536-1.294c4.836,0,8.957,1.985,12.364,5.958
			c3.406,3.974,5.113,8.644,5.113,14.014c0,5.81-1.949,10.559-5.844,14.25c-3.893,3.689-8.431,5.532-13.612,5.532
			c-3.58,0-7.145-1.051-10.693-3.153c-0.535,3.861-0.801,8.116-0.801,12.765c0,2.73,0.11,4.852,0.33,6.358l0.142,1.838
			c0.595,1.978,2.182,3.218,4.757,3.721c0.878,0.189,1.35,0.549,1.413,1.084l-0.141,0.471l-0.332,0.188
			c-3.871-0.22-6.908-0.33-9.111-0.33c-5.571,0-8.923,0.048-10.057,0.142c-0.724,0-1.086-0.267-1.086-0.802
			c0-0.502,0.314-0.784,0.943-0.847c2.92-0.314,4.75-0.974,5.488-1.979c0.738-1.005,1.208-5.458,1.413-13.354
			c0.204-7.898,0.306-12.837,0.306-14.816l-0.141-12.812l0.047-7.631c0-3.956-0.267-6.483-0.801-7.583
			c-0.534-1.101-1.9-1.728-4.098-1.886c-0.723-0.062-1.083-0.328-1.083-0.8c0-0.282,0.133-0.502,0.401-0.659
			c0.268-0.158,1.693-0.252,4.278-0.283L122.807,216.673z M122.429,237.635c0,5.747,0.141,9.422,0.424,11.022
			c0.282,1.601,1.295,3.093,3.039,4.476c1.743,1.382,4.027,2.071,6.853,2.071c3.832,0,6.91-1.641,9.233-4.922
			c2.323-3.28,3.486-7.293,3.486-12.036c0-5.4-1.186-9.727-3.557-12.977s-5.269-4.875-8.691-4.875c-3.329,0-5.958,1.382-7.89,4.145
			C123.395,227.303,122.429,231.668,122.429,237.635z"/>
		<path d="M170.852,216.626c0.755,1.854,1.209,4.978,1.367,9.373c1.947-3.077,4.104-5.384,6.477-6.924
			c2.37-1.538,4.953-2.309,7.75-2.309c2.136,0,4.199,0.4,6.192,1.201c1.994,0.799,3.534,2.179,4.616,4.14
			c1.085,1.961,1.626,5.292,1.626,9.997l-0.282,15.855c0,2.917,0.242,4.743,0.73,5.479c0.485,0.738,1.53,1.327,3.132,1.765
			c1.099,0.315,1.649,0.659,1.649,1.038c0,0.472-0.27,0.705-0.802,0.705c-0.22,0-0.439-0.014-0.66-0.042
			c-1.442-0.286-3.578-0.428-6.405-0.428c-2.543,0-5.276,0.108-8.197,0.329c-1.163,0-1.742-0.268-1.742-0.801
			c0-0.377,0.313-0.628,0.942-0.754c1.726-0.377,2.857-0.77,3.392-1.176c0.534-0.408,0.911-0.948,1.131-1.623s0.4-2.939,0.542-6.797
			c0.14-3.858,0.211-6.993,0.211-9.41c0-6.616-0.833-11.022-2.498-13.219c-1.662-2.195-3.735-3.293-6.216-3.293
			c-3.674,0-6.729,1.987-9.162,5.96c-2.434,3.973-3.651,10.591-3.651,19.853c0,4.21,0.275,6.887,0.825,8.033
			c0.549,1.146,1.923,1.846,4.121,2.096c0.69,0.063,1.037,0.361,1.037,0.896c0,0.439-0.346,0.658-1.034,0.658l-2.443-0.187
			c-0.877-0.063-3.773-0.096-8.69-0.096l-3.76,0.096c-1.378,0-2.066-0.252-2.066-0.754c0-0.534,0.748-0.942,2.245-1.226
			c1.433-0.282,2.398-0.778,2.898-1.485c0.498-0.708,0.833-3.059,1.005-7.052c0.172-3.992,0.258-8.977,0.258-14.951
			c0-5.565-0.377-9.025-1.131-10.377c-0.755-1.351-1.807-2.185-3.156-2.5c-1.225-0.281-1.837-0.674-1.837-1.177
			c0-0.534,0.471-0.803,1.413-0.803l3.815,0.048C164.901,216.767,167.021,216.719,170.852,216.626z"/>
		<path d="M210.326,237.281c0-5.521,1.994-10.383,5.983-14.587c3.986-4.201,8.885-6.305,14.696-6.305
			c5.463,0,10.166,1.884,14.107,5.647c3.94,3.764,5.911,8.468,5.911,14.114c0,5.71-2.071,10.721-6.218,15.033
			c-4.145,4.313-8.981,6.469-14.507,6.469c-5.466,0-10.159-1.981-14.086-5.951C212.289,247.734,210.326,242.927,210.326,237.281z
			 M217.957,236.998c0,5.396,1.248,9.879,3.744,13.455c2.496,3.577,5.583,5.364,9.257,5.364c3.359,0,6.319-1.677,8.879-5.034
			c2.559-3.355,3.84-7.809,3.84-13.36c0-4.956-1.233-9.37-3.697-13.244c-2.467-3.873-5.662-5.81-9.587-5.81
			c-3.643,0-6.626,1.764-8.95,5.291C219.118,227.189,217.957,231.636,217.957,236.998z"/>
		<path d="M287.86,244.49c0,3.637-1.348,6.763-4.044,9.38c-2.695,2.617-5.894,3.925-9.591,3.925c-2.196,0-4.813-0.705-7.853-2.119
			c-1.662-0.754-2.649-1.129-2.963-1.129c-0.532,0-1.004,0.328-1.411,0.987c-0.512,0.879-0.992,1.319-1.44,1.319
			c-0.386,0-0.627-0.447-0.722-1.342c-0.097-0.895-0.16-2.93-0.191-6.102c-0.033-2.73-0.08-4.489-0.143-5.275
			c0-1.16,0.307-1.743,0.92-1.743c0.355,0,0.63,0.3,0.823,0.895c1.218,3.581,2.931,6.619,5.134,9.117
			c2.205,2.495,4.791,3.743,7.762,3.743c2.095,0,3.954-0.65,5.581-1.954c1.625-1.303,2.438-3.068,2.438-5.3
			c0-3.453-2.992-6.516-8.977-9.185c-4.106-1.837-6.847-3.181-8.226-4.029c-1.38-0.849-2.46-1.997-3.243-3.442
			c-0.783-1.446-1.176-3.019-1.176-4.716c0-3.238,1.229-5.95,3.681-8.136c2.454-2.185,5.428-3.277,8.921-3.277
			c2.582,0,5.413,0.801,8.498,2.402c0.503,0.252,0.943,0.376,1.319,0.376c0.315,0,0.661-0.256,1.04-0.776
			c0.365-0.486,0.655-0.729,0.871-0.729c0.276,0,0.489,0.119,0.642,0.354c0.153,0.236,0.325,1.623,0.512,4.162
			c0.189,2.538,0.284,4.624,0.284,6.264c0,1.01-0.269,1.515-0.802,1.515c-0.472,0-0.849-0.455-1.13-1.361
			c-0.253-0.845-1.006-2.456-2.263-4.831c-1.255-2.378-2.63-3.896-4.121-4.553c-1.492-0.655-2.959-0.983-4.403-0.983
			c-2.261,0-4.114,0.548-5.559,1.644c-1.445,1.098-2.168,2.524-2.168,4.28c0,1.098,0.3,2.085,0.896,2.961
			c0.597,0.879,1.154,1.537,1.673,1.976c0.519,0.439,3.51,1.89,8.973,4.353c3.393,1.536,5.622,2.722,6.691,3.551
			c1.065,0.832,1.961,1.952,2.682,3.361C287.5,241.482,287.86,242.954,287.86,244.49z"/>
	</g>
	<g>
		<path d="M95.947,26.587v139.362l-28.296,1.587v-2.38c4.231-1.145,7.845-3.438,10.842-6.875c2.82-3.35,4.671-7.273,5.554-11.769
			c0.879-4.406,1.322-12.075,1.322-23.006V62.551c0-12.958-1.676-21.771-5.024-26.444c-3.263-4.671-7.494-7.58-12.694-8.727V25
			C73.116,25.707,82.547,26.236,95.947,26.587z M194.454,26.587v139.362c-3.88,0.087-13.577,0.616-29.089,1.587v-2.38
			c5.375-1.145,9.784-4.186,13.222-9.123c3.438-4.936,5.156-14.455,5.156-28.56V99.574h-67.169v32.13
			c0,12.429,1.762,20.805,5.289,25.122c3.613,4.32,7.976,7.098,13.09,8.33v2.38c-10.931-0.882-20.672-1.411-29.221-1.587V26.587
			c7.756,0,17.497-0.529,29.221-1.587v2.38c-6.964,1.94-11.768,5.599-14.412,10.975c-2.645,5.378-3.967,14.677-3.967,27.899v22.081
			h67.169V63.08c0-11.018-1.454-19.348-4.363-24.99c-3.086-5.553-7.758-9.123-14.015-10.71V25
			C174.885,26.058,184.58,26.587,194.454,26.587z M204.238,165.949V26.587c9.519,0,19.084-0.529,28.693-1.587v2.38
			c-11.195,3.173-17.014,13.84-17.453,31.998l-0.398,12.562v59.765c0,19.747,5.952,30.897,17.852,33.452v2.38
			C216.183,166.479,206.618,165.949,204.238,165.949z"/>
	</g>
</g>
</svg>
