<?xml version="1.0" encoding="utf-8"?>
<!-- Generator: Adobe Illustrator 16.0.0, SVG Export Plug-In . SVG Version: 6.00 Build 0)  -->
<!DOCTYPE svg PUBLIC "-//W3C//DTD SVG 1.1//EN" "http://www.w3.org/Graphics/SVG/1.1/DTD/svg11.dtd">
<svg version="1.1" xmlns="http://www.w3.org/2000/svg" xmlns:xlink="http://www.w3.org/1999/xlink" x="0px" y="0px" width="404px"
	 height="428.667px" viewBox="0 0 404 428.667" enable-background="new 0 0 404 428.667" xml:space="preserve">
<g id="Background_Complete">
	<g>
		<g>
			<path fill="#F0F0F0" d="M320.665,380.728c-18.726-12.258-23.48-35.725-23.272-56.926c0.035-3.54-0.449-7.259,1.179-10.401
				c1.629-3.144,5.553-5.358,8.798-3.945c2.69,1.172,3.926,4.199,5.477,6.69c2.063,3.313,5.081,6.025,8.597,7.721
				c2.311,1.114,5.15,1.761,7.373,0.48c3.05-1.757,3.311-5.979,3.202-9.497c-0.202-6.553-0.404-13.106-0.606-19.66
				c-0.108-3.517-0.208-7.106,0.819-10.472c1.026-3.364,3.398-6.523,6.766-7.542c3.367-1.018,7.607,0.812,8.407,4.236
				c0.333,1.426,0.073,2.92,0.208,4.377s0.864,3.057,2.279,3.431c1.432,0.378,2.833-0.654,3.874-1.708
				c3.591-3.64,5.975-8.273,8.195-12.879c2.222-4.604,4.371-9.315,7.613-13.269s7.784-7.133,12.88-7.54
				c5.097-0.407,10.61,2.572,12.021,7.486c1.415,4.927-1.394,10.027-4.484,14.117c-4.585,6.068-10.054,11.468-16.179,15.977
				c-1.104,0.813-2.301,1.693-2.699,3.006c-0.716,2.362,1.593,4.639,3.956,5.354c2.679,0.809,5.554,0.468,8.34,0.725
				c2.787,0.257,5.827,1.394,6.942,3.96c1.547,3.562-1.407,7.401-4.344,9.94c-5.881,5.085-12.64,9.153-19.886,11.971
				c-2.599,1.011-5.336,1.906-7.405,3.774c-2.069,1.869-3.268,5.06-1.931,7.506c1.339,2.45,4.637,3.164,7.37,2.596
				c2.733-0.567,5.155-2.098,7.748-3.135c4.853-1.941,11.185-1.759,14.424,2.343c2.129,2.696,2.404,6.516,1.441,9.813
				c-0.962,3.298-3.007,6.167-5.188,8.82c-7.626,9.276-17.495,16.833-28.76,20.992C342.555,383.229,332.055,384.532,320.665,380.728
				"/>
		</g>
		<g>
			<g>
				<path fill="#E0E0E0" d="M389.208,256.609c0,0-0.109,0.121-0.342,0.338c-0.251,0.229-0.597,0.546-1.04,0.951
					c-0.916,0.834-2.266,2.065-3.958,3.698c-3.391,3.255-8.146,8.149-13.273,14.814c-2.575,3.322-5.242,7.079-8.032,11.161
					c-2.781,4.09-5.726,8.479-8.646,13.208c-2.921,4.726-5.837,9.787-8.431,15.244c-1.309,2.723-2.466,5.567-3.645,8.466
					c-1.174,2.897-2.363,5.837-3.568,8.812c-4.774,11.916-8.948,23.427-11.866,34.156c-2.938,10.721-4.598,20.633-5.222,29.012
					c-0.643,8.384-0.294,15.204,0.174,19.878c0.247,2.337,0.478,4.149,0.679,5.371c0.087,0.594,0.155,1.057,0.205,1.394
					c0.044,0.315,0.052,0.479,0.052,0.479s-0.591-2.541-1.142-7.221c-0.531-4.677-0.939-11.515-0.342-19.928
					c0.577-8.407,2.203-18.358,5.123-29.113c2.899-10.763,7.068-22.301,11.846-34.225c1.206-2.976,2.397-5.916,3.572-8.814
					c1.178-2.892,2.346-5.756,3.664-8.489c2.612-5.479,5.546-10.55,8.483-15.279c2.938-4.731,5.899-9.116,8.699-13.198
					c2.809-4.076,5.499-7.827,8.099-11.143c5.18-6.652,9.989-11.521,13.428-14.733c1.718-1.612,3.09-2.82,4.03-3.629
					c0.458-0.389,0.814-0.691,1.074-0.912C389.074,256.703,389.208,256.609,389.208,256.609z"/>
			</g>
		</g>
		<g>
			<g>
				<path fill="#E0E0E0" d="M345.148,315.745c-0.036,0.007-0.163-0.526-0.361-1.496c-0.203-0.969-0.455-2.379-0.743-4.124
					c-0.579-3.491-1.22-8.338-1.913-13.685c-0.693-5.35-1.417-10.174-2.07-13.644c-0.321-1.736-0.599-3.139-0.805-4.104
					c-0.2-0.967-0.295-1.507-0.259-1.517c0.035-0.009,0.197,0.515,0.46,1.469c0.269,0.953,0.603,2.348,0.972,4.079
					c0.751,3.461,1.535,8.294,2.229,13.647c0.68,5.301,1.295,10.098,1.757,13.698c0.232,1.676,0.427,3.069,0.576,4.146
					C345.127,315.193,345.185,315.738,345.148,315.745z"/>
			</g>
		</g>
		<g>
			<g>
				<path fill="#E0E0E0" d="M390.757,306.2c0.001,0.019-0.161,0.048-0.47,0.088c-0.372,0.041-0.817,0.09-1.354,0.148
					c-1.175,0.123-2.874,0.298-4.967,0.583c-4.187,0.535-9.945,1.485-16.249,2.813c-6.304,1.341-11.954,2.8-16.009,3.979
					c-2.031,0.575-3.662,1.086-4.791,1.435c-0.516,0.156-0.945,0.287-1.303,0.396c-0.3,0.085-0.46,0.121-0.467,0.104
					c-0.006-0.018,0.143-0.087,0.432-0.205c0.349-0.134,0.768-0.296,1.271-0.489c1.109-0.409,2.727-0.977,4.749-1.6
					c4.036-1.272,9.688-2.794,16.008-4.138c6.318-1.332,12.104-2.226,16.314-2.667c2.103-0.237,3.813-0.356,4.994-0.416
					c0.54-0.02,0.988-0.036,1.362-0.05C390.591,306.176,390.756,306.182,390.757,306.2z"/>
			</g>
		</g>
		<g>
			<g>
				<path fill="#E0E0E0" d="M326.423,366.469c-0.017,0.008-0.125-0.182-0.315-0.549c-0.212-0.422-0.481-0.959-0.814-1.622
					c-0.702-1.41-1.668-3.476-2.829-6.042c-2.327-5.131-5.323-12.315-8.528-20.286c-3.207-7.973-6.145-15.172-8.381-20.336
					c-1.108-2.531-2.015-4.602-2.673-6.106c-0.296-0.68-0.535-1.23-0.723-1.662c-0.16-0.383-0.236-0.588-0.22-0.596
					s0.125,0.182,0.316,0.55c0.211,0.421,0.48,0.958,0.813,1.621c0.702,1.41,1.667,3.476,2.828,6.042
					c2.328,5.131,5.324,12.315,8.53,20.289c3.206,7.97,6.144,15.168,8.38,20.333c1.108,2.53,2.015,4.602,2.673,6.106
					c0.296,0.68,0.535,1.23,0.723,1.663C326.363,366.256,326.439,366.461,326.423,366.469z"/>
			</g>
		</g>
		<g>
			<g>
				<path fill="#E0E0E0" d="M386.83,345.649c0.005,0.017-0.202,0.103-0.602,0.249c-0.455,0.159-1.038,0.363-1.758,0.615
					c-1.593,0.547-3.789,1.301-6.476,2.223c-5.464,1.883-12.98,4.576-21.277,7.572c-8.3,2.996-15.842,5.637-21.341,7.43
					c-2.75,0.898-4.98,1.604-6.531,2.063c-0.733,0.214-1.326,0.387-1.788,0.521c-0.411,0.113-0.629,0.164-0.635,0.146
					s0.202-0.103,0.603-0.249c0.454-0.159,1.036-0.363,1.757-0.615c1.592-0.547,3.788-1.3,6.475-2.222
					c5.465-1.883,12.981-4.578,21.281-7.574c8.297-2.995,15.839-5.636,21.337-7.429c2.75-0.897,4.981-1.604,6.532-2.063
					c0.732-0.214,1.325-0.387,1.788-0.521C386.606,345.683,386.824,345.632,386.83,345.649z"/>
			</g>
		</g>
	</g>
	<g>
		<g>
			<g>
				<polygon fill="#E6E6E6" points="72.143,227.342 89.099,276.892 165.877,276.892 165.312,274.34 134.265,273.38 119.962,227.315 
									"/>
			</g>
			<g>
				<path fill="#FFFFFF" d="M106.166,250.615c0.507,2.03-0.363,4.019-1.942,4.441s-3.271-0.881-3.778-2.911s0.363-4.019,1.942-4.441
					C103.967,247.282,105.659,248.585,106.166,250.615z"/>
			</g>
		</g>
		<g>
			<g>
				<g>
					<g>
						<polygon fill="#EBEBEB" points="242.734,334.542 268.248,422.12 271.314,422.12 251.736,334.241 						"/>
					</g>
					<g>
						<polygon fill="#EBEBEB" points="195.87,334.982 176.117,422.089 179.621,422.089 206.059,334.955 						"/>
					</g>
					<g>
						<polygon fill="#EBEBEB" points="218.982,332.972 222.005,422.089 226.148,422.089 227.968,333.315 						"/>
					</g>
					<g>
						<polygon fill="#EBEBEB" points="194.953,370.249 254.193,368.393 254.585,374.526 190.507,376.983 						"/>
					</g>
					<g>
						<polygon fill="#E0E0E0" points="195.836,334.955 194.928,339.462 204.73,339.462 205.954,334.955 						"/>
					</g>
					<g>
						<polygon fill="#E0E0E0" points="218.957,333.219 219.169,339.462 227.861,339.462 227.968,334.306 						"/>
					</g>
					<g>
						<polyline fill="#E0E0E0" points="220.211,369.457 220.428,375.836 215.833,376.013 214.333,369.642 220.211,369.457 						"/>
					</g>
					<g>
						<polygon fill="#E0E0E0" points="227.233,369.121 227.101,375.603 230.695,375.465 231.524,369.121 						"/>
					</g>
				</g>
				<g>
					<polygon fill="#E0E0E0" points="242.349,333.219 243.661,337.726 252.512,337.726 251.537,333.347 					"/>
				</g>
			</g>
			<g>
				<g>
					<path fill="#F0F0F0" d="M176.223,328.799c8.425-4.129,42.471-1.904,42.471-1.904s-9.613-119.342,2.816-120.297
						c12.43-0.956,40.583-9.905,45.661,8.143c5.335,18.965-1.878,120.358-9,119.376c-16.244-2.241-66.339,3.561-81.42,0.009
						C172.864,333.21,176.223,328.799,176.223,328.799z"/>
				</g>
				<g>
					<g>
						<path fill="#E0E0E0" d="M256.462,216.801c0.053-0.029,0.292,0.297,0.702,0.953c0.214,0.324,0.437,0.746,0.696,1.248
							c0.272,0.498,0.537,1.094,0.832,1.768c1.173,2.694,2.384,6.837,2.935,12.065c0.579,5.229,0.615,11.456,0.5,18.349
							c-0.119,6.898-0.537,14.472-1.155,22.399c-0.629,7.93-1.389,15.465-2.106,22.31c-0.707,6.843-1.402,13.03-2.366,18.175
							c-0.943,5.148-2.117,9.236-3.106,11.989c-0.997,2.753-1.742,4.193-1.837,4.154c-0.129-0.051,0.401-1.572,1.19-4.36
							c0.781-2.79,1.758-6.868,2.536-11.988c0.8-5.118,1.364-11.271,1.983-18.127c0.63-6.853,1.34-14.382,1.968-22.289
							c0.616-7.905,1.081-15.441,1.286-22.303c0.204-6.86,0.293-13.052-0.12-18.19c-0.387-5.149-1.385-9.222-2.341-11.939
							C257.102,218.294,256.331,216.873,256.462,216.801z"/>
					</g>
				</g>
				<g>
					<g>
						<path fill="#E0E0E0" d="M250.096,330.064c-0.099,0.496-7.84-0.721-17.44-1.49c-9.603-0.801-17.437-0.858-17.454-1.363
							c-0.025-0.457,7.873-1.185,17.596-0.375C242.52,327.616,250.196,329.618,250.096,330.064z"/>
					</g>
				</g>
			</g>
		</g>
		<g>
			<g>
				<g>
					<rect x="31.374" y="276.159" fill="#E6E6E6" width="272.21" height="8.917"/>
				</g>
				<g>
					<polygon fill="#EBEBEB" points="52.663,285.076 31.374,422.007 42.019,422.202 78.551,285.076 					"/>
				</g>
				<g>
					<polyline fill="#EBEBEB" points="283.767,283.603 296.207,422.12 286.295,422.12 259.444,289.34 258.043,279.479 
						283.767,283.603 					"/>
				</g>
				<g>
					<polygon fill="#E0E0E0" points="258.839,285.076 259.828,291.237 284.37,290.324 283.899,285.076 					"/>
				</g>
				<g>
					<polygon fill="#E0E0E0" points="52.663,285.076 51.66,291.385 77.024,290.681 78.551,285.076 					"/>
				</g>
			</g>
		</g>
		<g>
			<g>
				<path fill="#E0E0E0" d="M41.28,277.396v-10.681l5.38-1.188l-5.38-3.324v-10.101h57.393v6.052l3.242-0.013
					c-0.532,0.602,1.045,1.326,0.353,1.58c-1.163,0.429-3.954,1.098-3.954,1.098l0.717,4.208l-3.228,0.724l4.304,3.022l0.718,7.953
					l-59.545,1.227"/>
			</g>
			<g>
				<path fill="#F0F0F0" d="M36.035,277.396v-10.681l5.381-1.188l-5.381-3.324v-10.101h57.394v6.052l3.242-0.013
					c-0.531,0.602,1.045,1.326,0.353,1.58c-1.163,0.429-3.954,1.098-3.954,1.098l0.717,4.208l-3.229,0.724l4.305,3.022l0.717,7.953
					l-59.545,1.227"/>
			</g>
		</g>
		<g>
			<path fill="#F0F0F0" d="M304.632,262.212c-1.437-1.214-3.399-1.369-4.609-1.327c0.007-0.888-0.033-1.436-0.033-1.436h-25.14
				c0,0-0.79,16.599,11.92,17.186c5.688,0.262,8.944-2.287,10.808-5.495c0.607,0.145,1.664,0.347,2.852,0.347
				c1.324,0,2.8-0.253,3.96-1.119c0.862-0.644,1.89-1.904,1.89-4.253C306.278,264.038,305.383,262.847,304.632,262.212z
				 M302.909,268.38c-1.073,0.805-2.996,0.681-4.248,0.455c0.709-1.894,1.059-3.834,1.224-5.459c0.86-0.053,2.309,0.019,3.148,0.729
				c0.517,0.437,0.768,1.094,0.768,2.01C303.801,267.189,303.509,267.93,302.909,268.38z"/>
		</g>
	</g>
	<g>
		<g>
			<path fill="#E0E0E0" d="M126.197,146.179l-12.562-12.128H47.38V94.378l93.463-1.961v40.814h-16.407L126.197,146.179z
				 M48.38,133.051h65.66l10.778,10.406l-1.527-11.226h16.552V93.438L48.38,95.357V133.051z"/>
		</g>
		<g>
			<rect x="59.703" y="104.369" fill="#E0E0E0" width="31.231" height="3.664"/>
		</g>
		<g>
			<rect x="59.703" y="112.736" fill="#E0E0E0" width="69.596" height="3.664"/>
		</g>
		<g>
			<rect x="59.703" y="120.004" fill="#E0E0E0" width="69.596" height="3.664"/>
		</g>
	</g>
	<g>
		<g>
			<polygon fill="#E0E0E0" points="92.551,15.083 94.453,66.633 172.281,66.633 243.823,42.653 243.823,11.279 			"/>
		</g>
		<g>
			<g>
				<path fill="#F0F0F0" d="M172.669,36.201l0.633,42.273H239.4c0,0,6.389,29.39,6.415,27.779s8.078-28.183,8.078-28.183
					l85.352-0.805V34.188L172.669,36.201z"/>
			</g>
			<g>
				<rect x="190.562" y="50.52" fill="#FFFFFF" width="130.791" height="4.141"/>
			</g>
			<g>
				<rect x="190.562" y="60.263" fill="#FFFFFF" width="130.791" height="4.142"/>
			</g>
		</g>
	</g>
</g>
<g id="Background_Simple" display="none">
	<path display="inline" fill="#F0F0F0" d="M64.085,146.121c-9.362,83.555,7.258,169.541,104.758,181.607
		c50.261,6.221,153.776-16.117,156.528-80.494c3.792-88.723-95.257-56.245-136.817-86.002
		c-28.489-20.397-6.471-75.416-59.031-84.632C87.974,69.315,67.977,111.386,64.085,146.121z"/>
</g>
<g id="Floor">
	<g>
		<g>
			<g>
				<path fill="#263238" d="M344.952,422.326c0,0.144-74.771,0.261-166.984,0.261c-92.245,0-167-0.117-167-0.261
					s74.755-0.261,167-0.261C270.182,422.065,344.952,422.183,344.952,422.326z"/>
			</g>
		</g>
	</g>
</g>
<g id="Plant">
	<g>
		<path opacity="0.5" fill="#AF911D" d="M93.876,289.155c-5.665,0.911-8.197,7.872-7.702,13.588s2.845,11.304,2.216,17.006
			c-0.798,7.242-6.271,13.363-6.908,20.621c-0.752,8.56,5.3,16.151,7.107,24.552c0.879,4.087,0.756,8.409,2.278,12.303
			c2.566,6.565,10.09,10.781,17.03,9.542s12.539-7.8,12.673-14.848c0.125-6.572-3.93-12.763-3.438-19.317
			c0.364-4.846,3.204-9.437,2.596-14.257c-0.724-5.735-6.039-9.809-7.914-15.277c-1.875-5.47-0.074-11.497-0.721-17.244
			C109.934,295.515,104.218,288.328,93.876,289.155"/>
		<g>
			<path fill="#E8505B" d="M64.951,339.07c-0.964,9.552,3.26,20.79,8.172,29.038c4.913,8.249,12.527,14.857,21.384,18.561
				c0.999,0.418,2.243,0.769,3.083,0.087c0.688-0.56,0.774-1.563,0.78-2.45c0.067-10.052-3.204-20.098-9.177-28.183
				C83.221,348.037,74.579,341.959,64.951,339.07"/>
			<path opacity="0.2" fill="#FFFFFF" d="M64.951,339.07c-0.964,9.552,3.26,20.79,8.172,29.038
				c4.913,8.249,12.527,14.857,21.384,18.561c0.999,0.418,2.243,0.769,3.083,0.087c0.688-0.56,0.774-1.563,0.78-2.45
				c0.067-10.052-3.204-20.098-9.177-28.183C83.221,348.037,74.579,341.959,64.951,339.07"/>
		</g>
		<g>
			<path fill="#263238" d="M106.562,406.642c-0.017,0.007-0.11-0.177-0.272-0.532c-0.18-0.412-0.406-0.93-0.682-1.564
				c-0.574-1.364-1.432-3.328-2.525-5.738c-2.181-4.822-5.414-11.387-9.484-18.36c-4.08-6.971-8.214-13.01-11.344-17.276
				c-1.563-2.136-2.853-3.847-3.761-5.017c-0.417-0.552-0.757-1.002-1.028-1.361c-0.23-0.315-0.345-0.486-0.33-0.498
				s0.157,0.136,0.415,0.429c0.292,0.343,0.659,0.772,1.108,1.299c0.959,1.131,2.297,2.809,3.903,4.919
				c3.216,4.216,7.413,10.24,11.505,17.232c4.082,6.994,7.27,13.606,9.366,18.478c1.05,2.436,1.856,4.425,2.37,5.816
				c0.238,0.649,0.433,1.18,0.587,1.603C106.52,406.438,106.579,406.635,106.562,406.642z"/>
		</g>
		<g>
			<path fill="#263238" d="M100.412,315.582c0.019-0.001,0.054,0.314,0.104,0.916c0.047,0.648,0.111,1.525,0.191,2.631
				c0.15,2.336,0.362,5.63,0.623,9.679c0.516,8.173,1.241,19.463,2.117,31.927c0.878,12.468,1.742,23.748,2.376,31.913
				c0.31,4.045,0.561,7.336,0.74,9.671c0.075,1.104,0.135,1.982,0.179,2.631c0.035,0.602,0.045,0.919,0.026,0.921
				c-0.019,0.001-0.064-0.313-0.135-0.911c-0.069-0.646-0.163-1.521-0.281-2.622c-0.22-2.332-0.53-5.618-0.912-9.657
				c-0.732-8.158-1.657-19.437-2.535-31.907c-0.876-12.467-1.541-23.763-1.959-31.943c-0.188-4.053-0.341-7.351-0.45-9.689
				c-0.038-1.107-0.067-1.986-0.089-2.636C100.392,315.9,100.394,315.583,100.412,315.582z"/>
		</g>
		<g>
			<path fill="#263238" d="M91.626,393.02h23.922v17.563c0,6.343-5.141,11.483-11.483,11.483l0,0
				c-6.104,0-11.141-4.774-11.467-10.87L91.626,393.02z"/>
		</g>
	</g>
</g>
<g id="Speech_bubble">
	<g>
		<g>
			<path fill="#1A1C34" d="M349.926,128.869c-3.464,19.961-22.453,33.335-42.414,29.871c-10.271-1.782-18.789-7.68-24.175-15.701
				l-17.38,2.695l11.77-16.361c-0.789-4.193-0.858-8.596-0.086-13.048c3.463-19.96,22.453-33.334,42.414-29.871
				C340.016,89.918,353.39,108.908,349.926,128.869z"/>
		</g>
		<g>
			<path fill="#FFFFFF" d="M324.713,135.925c2.968,0.09,5.174-3.693,5.354-9.629c0.307-10.075-6.658-17.693-16.775-18.001
				c-10.159-0.309-17.908,6.862-18.213,16.895c-0.293,9.615,6.768,16.86,16.635,17.16c2.383,0.072,5.583-0.625,7.668-1.776
				l0.587,1.357c-2.213,1.23-5.753,2.043-8.303,1.966c-10.702-0.326-18.369-8.258-18.05-18.751
				c0.331-10.911,8.728-18.689,19.722-18.355c10.827,0.33,18.486,8.554,18.151,19.549c-0.207,6.814-2.975,11.124-6.987,11.001
				c-2.258-0.069-3.964-1.752-4.006-4.474l0.065-2.174c-1.695,3.463-5.191,5.575-9.33,5.449
				c-5.894-0.179-10.274-4.748-10.086-10.935c0.186-6.104,4.63-10.53,10.608-10.348c4.348,0.132,7.659,2.702,8.861,5.835
				l0.163-5.393l1.672,0.051l-0.519,17.057C321.867,134.583,323.125,135.876,324.713,135.925z M302.903,125.219
				c-0.156,5.142,3.365,9.058,8.466,9.212c5.143,0.156,8.895-3.538,9.051-8.68c0.155-5.1-3.408-9.017-8.509-9.172
				C306.81,116.425,303.058,120.119,302.903,125.219z"/>
		</g>
	</g>
</g>
<g id="Character">
	<g>
		<path fill="#E5BAAB" d="M265.545,150.029c-1.784-0.543-4.981,9.07-5.492,6.605c-0.512-2.465,5.276-11.303,3.389-11.794
			c-2.462-0.64-5.624,9.485-5.955,10.323c-0.321,0.813-1.552,0.388-1.213-0.352c0.487-1.064,5.334-12.361,2.923-13.012
			c-1.337-0.361-1.763,2.099-1.763,2.099s-3.756,10.903-4.884,10.558c-1.146-0.351,0.845-6.826,1.67-8.963
			c0.815-2.111,0.143-3.357-1.092-2.941c-0.843,0.283-3.524,6.766-4.291,8.897s-2.766,8.016-4.141,4.313
			c-1.374-3.703-3.825-6.031-4.927-6.199s-1.737,1.303-0.868,2.17c0.701,0.699,1.509,2.228,2.068,3.4
			c0.462,0.969,0.764,2.006,0.875,3.072c0.429,4.11,0.158,6.442,0.158,6.442l0.027,0.601l-11.893,29.441L216.93,165.74
			c-4.232-14.06-21.701-14.639-21.701-14.639l-17.315-1.873c-6.26-2.404-13.252-2.018-17.145,0.225
			c-4.964,2.86-8.333,7.843-9.473,13.457c-3.984,19.621-17.881,89.881-19.029,120.652h0.057c-0.747,3.817-1.439,7.809-1.587,10.135
			c-0.339,5.334,0.138,5.371,0.767,5.305c1.686-0.179,0.952-9.36,2.254-7.479s-0.407,11.334,1.348,11.075
			c2.288-0.338,1.342-9.936,1.322-10.754c-0.019-0.795,1.162-0.875,1.14-0.136c-0.03,1.063-0.08,12.239,2.17,11.929
			c1.247-0.172,0.73-2.382,0.73-2.382s-0.724-10.46,0.343-10.571c1.083-0.112,1.715,6.015,1.782,8.096
			c0.066,2.057,1.071,2.86,1.958,2.075c0.604-0.536,0.549-6.915,0.436-8.971c-0.114-2.057-0.529-7.691,1.936-5.08
			c2.464,2.612,5.342,3.691,6.324,3.441c0.981-0.25,0.992-1.707-0.043-2.124c-0.84-0.338-2.066-1.34-2.953-2.126
			c-0.714-0.633-1.322-1.374-1.786-2.208c-0.151-0.271-0.278-0.518-0.412-0.771c0.378-5.85,3.82-56.104,12.673-90.547l1.669-4.293
			c1.733,6.985,0.7,21.324-2.97,27.516c-6.078,10.255-5.597,35.467-5.597,35.467l55.887,2.119c0,0-0.435-9.273-0.929-21.106
			l-1.237-34.82l0.145-6.677l0.259-0.697c2.693,4.309,6.074,9.844,10.253,16.893c13.886,23.43,25.603-4.459,25.603-4.459
			l11.875-33.587c2.994-4.315,6.821-10.015,8.364-13.095C266.677,150.475,266.21,150.23,265.545,150.029z"/>
		<path fill="#E8505B" d="M179.571,418.061v-9.038l-16.93-0.108l-0.14,13.223l1.049,0.074c4.67,0.289,23.765,1.142,26.894,0.215
			C193.935,421.392,179.571,418.061,179.571,418.061z"/>
		<ellipse fill="#263238" cx="176.702" cy="421.599" rx="14.143" ry="0.289"/>
		<path fill="#263238" d="M179.869,419.905c-0.139-0.076-0.017-0.563,0.348-1.034c0.363-0.473,0.803-0.715,0.912-0.601
			c0.112,0.117-0.12,0.519-0.453,0.954C180.34,419.657,180.01,419.984,179.869,419.905z"/>
		<path fill="#263238" d="M180.949,420.501c-0.147-0.058-0.07-0.602,0.264-1.166c0.333-0.566,0.771-0.897,0.892-0.797
			c0.125,0.103-0.086,0.567-0.393,1.091C181.403,420.15,181.099,420.562,180.949,420.501z"/>
		<path fill="#263238" d="M167.659,421.538c-0.066,0.048-0.32-0.19-0.69-0.592c-0.372-0.396-0.862-0.958-1.498-1.425
			c-0.633-0.462-1.318-0.693-1.824-0.753c-0.508-0.066-0.842,0.004-0.87-0.08c-0.029-0.063,0.283-0.289,0.881-0.329
			c0.591-0.046,1.427,0.162,2.153,0.694c0.72,0.529,1.186,1.176,1.483,1.644C167.588,421.172,167.722,421.491,167.659,421.538z"/>
		<path fill="#263238" d="M179.92,418.206c0.081,0.136-0.214,0.458-0.696,0.627c-0.482,0.17-0.913,0.104-0.935-0.053
			c-0.024-0.16,0.319-0.343,0.743-0.494C179.457,418.139,179.839,418.066,179.92,418.206z"/>
		<path fill="#263238" d="M179.655,417.333c0.015,0.159-0.437,0.295-1.007,0.303c-0.571,0.008-1.026-0.116-1.015-0.276
			c0.01-0.159,0.461-0.295,1.007-0.303C179.186,417.05,179.64,417.174,179.655,417.333z"/>
		<path fill="#E8505B" d="M197.431,414.857l2.676-8.633l-16.138-5.116l-4.048,12.588l0.98,0.382
			c4.375,1.658,22.362,8.126,25.625,8.167C210.164,422.291,197.431,414.857,197.431,414.857z"/>
		
			<ellipse transform="matrix(0.9552 0.2961 -0.2961 0.9552 132.2619 -38.6196)" fill="#263238" cx="193.643" cy="417.387" rx="14.143" ry="0.289"/>
		<path fill="#263238" d="M197.169,416.707c-0.11-0.113,0.151-0.542,0.639-0.885c0.487-0.345,0.979-0.445,1.049-0.304
			c0.072,0.145-0.268,0.46-0.715,0.776C197.693,416.609,197.281,416.824,197.169,416.707z"/>
		<path fill="#263238" d="M198.025,417.596c-0.124-0.099,0.111-0.595,0.598-1.035c0.485-0.442,1.001-0.629,1.088-0.497
			c0.089,0.135-0.25,0.516-0.698,0.925C198.562,417.396,198.15,417.697,198.025,417.596z"/>
		<path fill="#263238" d="M185.024,414.651c-0.077,0.026-0.25-0.276-0.484-0.77c-0.238-0.489-0.54-1.17-1.009-1.804
			c-0.468-0.629-1.053-1.053-1.519-1.26c-0.466-0.214-0.806-0.245-0.808-0.334c-0.008-0.068,0.356-0.192,0.94-0.054
			c0.578,0.132,1.314,0.577,1.851,1.301c0.531,0.719,0.785,1.475,0.93,2.009C185.064,414.281,185.098,414.626,185.024,414.651z"/>
		<path fill="#263238" d="M197.722,415.1c0.037,0.153-0.34,0.374-0.851,0.392c-0.511,0.021-0.902-0.171-0.877-0.327
			c0.024-0.159,0.406-0.232,0.855-0.251C197.299,414.897,197.685,414.941,197.722,415.1z"/>
		<path fill="#263238" d="M197.727,414.187c-0.033,0.156-0.504,0.152-1.052-0.009c-0.548-0.162-0.945-0.415-0.888-0.564
			c0.058-0.149,0.528-0.146,1.052,0.009C197.362,413.777,197.759,414.03,197.727,414.187z"/>
		<g>
			<path fill="#E5BAAB" d="M194.901,152.169c-0.26-1.878,0.75-9.694,0.75-9.694s7.183-0.528,7.846-7.614
				c0.663-7.085,0.754-23.471,0.754-23.471l-12.835-6.794l-14.692,10.406l-3.833,8.216l4.883,18.036l-0.018,9.314L194.901,152.169z"
				/>
		</g>
		<g>
			<path fill="#263238" d="M203.354,122.314c0.058-0.05-0.029-0.282-0.313-0.55c-0.278-0.265-0.774-0.545-1.383-0.602
				c-0.608-0.057-1.147,0.126-1.47,0.336c-0.329,0.21-0.458,0.422-0.409,0.482c0.098,0.134,0.849-0.327,1.824-0.229
				c0.128,0.012,0.25,0.031,0.366,0.058c-0.281,0.147-0.484,0.425-0.495,0.765c-0.016,0.502,0.377,0.922,0.879,0.938
				c0.501,0.017,0.922-0.377,0.938-0.879c0.003-0.113-0.02-0.221-0.054-0.322C203.29,122.328,203.333,122.335,203.354,122.314z"/>
		</g>
		<g>
			<path fill="#263238" d="M192.509,121.967c0.059-0.05-0.028-0.283-0.313-0.55c-0.278-0.266-0.774-0.546-1.383-0.603
				c-0.608-0.057-1.147,0.127-1.47,0.336c-0.329,0.21-0.457,0.423-0.409,0.482c0.098,0.135,0.849-0.327,1.824-0.229
				c0.169,0.015,0.325,0.048,0.473,0.086c-0.141,0.063-0.272,0.147-0.37,0.28c-0.297,0.405-0.209,0.975,0.196,1.271
				c0.405,0.296,0.974,0.208,1.271-0.196c0.193-0.264,0.208-0.591,0.095-0.873C192.461,121.981,192.492,121.982,192.509,121.967z"/>
		</g>
		<g>
			<g>
				<path fill="#263238" d="M195.772,130.343c0-0.055,0.614-0.108,1.607-0.15c0.25-0.004,0.495-0.033,0.553-0.214
					c0.074-0.188-0.013-0.48-0.114-0.794c-0.192-0.649-0.394-1.332-0.605-2.049c-0.837-2.914-1.431-5.301-1.326-5.331
					c0.053-0.016,0.271,0.562,0.58,1.506c0.309,0.945,0.71,2.258,1.129,3.715c0.201,0.72,0.393,1.406,0.575,2.059
					c0.075,0.305,0.214,0.652,0.064,1.026c-0.079,0.186-0.268,0.309-0.428,0.339c-0.162,0.037-0.302,0.027-0.426,0.025
					C196.388,130.444,195.773,130.398,195.772,130.343z"/>
			</g>
		</g>
		<g>
			<path fill="#EFEDE9" d="M192.512,131.165c0.788,0.295,2.681,1.716,4.678,1.78c0,0-1.289,1.73-3.273,0.816
				C191.857,132.813,192.512,131.165,192.512,131.165z"/>
		</g>
		<g>
			<path fill="#D78776" d="M195.65,142.475c0,0-4.783-0.101-9.304-3.479c0,0,1.964,5.281,9.093,5.216L195.65,142.475z"/>
		</g>
		<path fill="#263238" d="M209.03,100.811c-0.959-1.072-2.574-1.313-3.99-1.06c-1.416,0.252-2.72,0.912-4.078,1.387
			s-2.873,0.76-4.217,0.252c-1.848-0.699-2.867-2.668-4.46-3.835c-1.396-1.022-3.255-1.384-4.932-0.958
			c-1.676,0.427-3.138,1.631-3.876,3.196c-0.795,1.686-0.963,3.948-2.639,4.765c-1.347,0.655-2.917-0.03-4.35-0.464
			c-1.327-0.402-2.774-0.578-4.089-0.143c-1.316,0.437-2.454,1.595-2.547,2.978c-0.085,1.266,0.675,2.466,0.634,3.733
			c-0.062,1.93-1.875,3.279-3.536,4.263c-1.662,0.984-3.535,2.152-3.864,4.055c-0.278,1.609,0.695,3.185,1.876,4.313
			c1.181,1.128,2.607,1.998,3.663,3.244c1.056,1.246,1.683,3.076,0.919,4.52c-0.384,0.725-1.086,1.296-1.25,2.099
			c-0.273,1.342,1.045,2.431,2.23,3.116c1.25,0.723,2.572,1.4,4.007,1.562c0.564,0.063,1.151,0.025,1.708-0.108
			c0.973,2.845,1.57,5.249,1.57,5.249c1.187,1.932,1.191-4.369,1.191-4.369s0.579-6.088-0.39-8.394c0,0-3.606,1.396-4.807-5.148
			c-0.593-3.233,4.238-5.074,5.799-1.208l3.085,0.109c0,0-0.36-12.637,6.754-10.456c12.561,3.849,19.296-0.199,20.168-10.396
			l-0.04,0.01C209.754,102.336,209.577,101.423,209.03,100.811z"/>
		<path fill="#D78776" d="M178.333,128.225c-0.028-0.018-0.101,0.08-0.274,0.172c-0.169,0.09-0.464,0.163-0.787,0.064
			c-0.653-0.196-1.252-1.178-1.348-2.266c-0.049-0.55,0.034-1.081,0.203-1.527c0.158-0.453,0.425-0.78,0.744-0.856
			c0.315-0.094,0.555,0.085,0.639,0.251c0.091,0.164,0.061,0.287,0.093,0.296c0.018,0.014,0.124-0.109,0.06-0.356
			c-0.032-0.118-0.112-0.257-0.261-0.364c-0.152-0.109-0.37-0.156-0.592-0.119c-0.464,0.061-0.858,0.516-1.044,1.005
			c-0.211,0.493-0.318,1.091-0.263,1.708c0.112,1.216,0.805,2.319,1.695,2.519c0.432,0.086,0.779-0.064,0.954-0.218
			C178.33,128.371,178.354,128.234,178.333,128.225z"/>
		<path fill="#263238" d="M209.228,239.483l-22.213-1.706l0,0l-33.669-2.729l3.765,180.831l29.229-0.383
			c0,0-0.025-2.011-0.067-5.542l17.133,4.688c0,0,16.702-56.413,22.396-79.568C230.551,315.762,209.228,239.483,209.228,239.483z
			 M185.955,381.836c-0.446-41.737-1.048-108.473-0.438-117.155c0,0,16.371,58.247,16.525,63.178
			C202.137,330.857,193.072,359.697,185.955,381.836z"/>
		<polygon opacity="0.2" points="185.955,381.836 186.272,409.955 190.991,411.246 189.849,369.652 		"/>
		<path fill="#455A64" d="M185.151,264.478c-0.092-0.052,0.672-1.229,1.326-3.355c0.679-2.116,1.088-5.186,1.053-8.59
			c-0.037-3.407-0.252-6.515-0.176-8.77c0.028-1.127,0.096-2.038,0.176-2.664c0.079-0.626,0.154-0.968,0.192-0.964
			c0.089,0.009-0.015,1.393,0.041,3.628c0.028,2.236,0.308,5.321,0.346,8.767c0.037,3.444-0.446,6.589-1.244,8.722
			c-0.386,1.068-0.799,1.894-1.132,2.433C185.402,264.224,185.181,264.497,185.151,264.478z"/>
		<path fill="#455A64" d="M182.06,241.606c-0.019-0.026,0.109-0.177,0.432-0.307c0.317-0.129,0.851-0.206,1.455,0.006
			c0.588,0.188,1.288,0.787,1.381,1.688c0.107,0.852-0.295,1.896-1.25,2.362c-0.972,0.434-2.031,0.07-2.614-0.561
			c-0.63-0.651-0.635-1.576-0.396-2.145c0.231-0.598,0.637-0.953,0.942-1.109c0.31-0.159,0.507-0.157,0.515-0.126
			c0.058,0.079-0.75,0.309-1.068,1.365c-0.15,0.501-0.096,1.178,0.392,1.646c0.459,0.469,1.305,0.719,1.984,0.405
			c0.676-0.319,1.028-1.128,0.964-1.781c-0.043-0.675-0.525-1.153-1.003-1.364C182.783,241.242,182.082,241.702,182.06,241.606z"/>
		<path fill="#455A64" d="M211.355,248.423c0.031,0.05-0.697,0.548-2.072,0.803c-1.35,0.263-3.398,0.17-5.281-0.907
			c-1.879-1.085-2.99-2.81-3.443-4.107c-0.472-1.316-0.408-2.196-0.349-2.194c0.098-0.014,0.184,0.831,0.728,2.04
			c0.526,1.197,1.617,2.758,3.354,3.76c1.738,0.995,3.636,1.152,4.936,1.004C210.544,248.682,211.318,248.33,211.355,248.423z"/>
		<path fill="#455A64" d="M165.912,237.562c0.034-0.01,0.153,0.256,0.285,0.764c0.133,0.508,0.248,1.267,0.233,2.211
			c-0.011,1.863-0.732,4.583-2.807,6.68c-2.088,2.084-4.806,2.816-6.669,2.835c-0.944,0.02-1.704-0.092-2.211-0.224
			c-0.509-0.13-0.774-0.248-0.765-0.281c0.021-0.107,1.14,0.236,2.955,0.096c1.785-0.12,4.325-0.882,6.28-2.834
			c1.943-1.963,2.695-4.506,2.808-6.291C166.153,238.701,165.805,237.584,165.912,237.562z"/>
		<ellipse fill="#455A64" cx="171.896" cy="408.628" rx="14.602" ry="0.289"/>
		<path fill="#263238" d="M161.126,408.628"/>
		<path fill="#455A64" d="M161.126,409.052c-0.16,0.001-0.614-35.662-1.014-79.647c-0.4-44-0.595-79.658-0.435-79.659
			c0.16-0.002,0.614,35.654,1.014,79.654C161.091,373.384,161.286,409.05,161.126,409.052z"/>
		<path fill="#455A64" d="M186.889,388.907c-0.009-0.003,0.016-0.116,0.075-0.336c0.071-0.249,0.162-0.568,0.275-0.97
			c0.266-0.886,0.639-2.128,1.113-3.709c1.002-3.253,2.432-7.893,4.194-13.61c1.794-5.751,3.926-12.581,6.291-20.162
			c1.19-3.793,2.439-7.773,3.734-11.899c0.649-2.063,1.309-4.163,1.979-6.294c0.313-1.055,0.723-2.16,0.964-3.195
			c0.038-0.994-0.212-2.177-0.428-3.273c-0.951-4.47-2.166-8.788-3.32-12.953c-1.169-4.164-2.34-8.169-3.469-11.979
			c-2.262-7.621-4.355-14.469-6.121-20.216c-1.762-5.718-3.191-10.357-4.194-13.609c-0.48-1.579-0.857-2.82-1.126-3.705
			c-0.116-0.4-0.208-0.719-0.28-0.968c-0.06-0.219-0.086-0.332-0.077-0.335c0.009-0.003,0.054,0.104,0.133,0.317
			c0.086,0.244,0.197,0.557,0.335,0.95c0.293,0.877,0.706,2.106,1.23,3.672c1.044,3.239,2.534,7.86,4.37,13.556
			c1.816,5.733,3.95,12.569,6.241,20.186c1.144,3.809,2.327,7.812,3.504,11.978c1.164,4.171,2.382,8.483,3.342,12.992
			c0.114,0.564,0.229,1.128,0.31,1.701c0.048,0.284,0.093,0.569,0.11,0.865c0.027,0.29,0.061,0.579,0.011,0.922
			c-0.271,1.157-0.66,2.175-0.98,3.257c-0.674,2.131-1.337,4.229-1.989,6.292c-1.306,4.124-2.566,8.102-3.767,11.894
			c-2.411,7.568-4.583,14.388-6.411,20.13c-1.836,5.695-3.326,10.317-4.37,13.557c-0.519,1.567-0.926,2.799-1.216,3.678
			c-0.137,0.394-0.245,0.707-0.33,0.951C186.943,388.803,186.898,388.91,186.889,388.907z"/>
		<path fill="#455A64" d="M186.245,402.131c0.029-0.076,0.96,0.262,2.675,0.853c1.902,0.665,4.175,1.46,6.688,2.338
			c2.515,0.877,4.789,1.67,6.691,2.333c1.71,0.605,2.762,1.004,2.737,1.081c-0.023,0.075-1.118-0.186-2.863-0.691
			s-4.139-1.263-6.756-2.177c-2.617-0.913-4.961-1.811-6.642-2.5C187.095,402.677,186.217,402.204,186.245,402.131z"/>
		<path fill="#455A64" d="M171.05,318.949c-0.01-0.013,0.128-0.15,0.438-0.353c0.311-0.195,0.803-0.456,1.494-0.616
			c0.685-0.158,1.583-0.225,2.565,0.062c0.973,0.28,2.014,0.92,2.774,1.968c0.788,1.044,1.091,2.498,1.099,3.966
			c0.004,1.479-0.094,3.021-0.146,4.66c-0.086,1.629-0.047,3.363-0.415,5.161c-0.187,0.891-0.489,1.805-1.042,2.61
			c-0.547,0.801-1.378,1.471-2.361,1.743c-1.988,0.547-4.022-0.267-5.341-1.558c-1.329-1.342-1.937-3.103-2.205-4.738
			c-0.469-3.316,0.009-6.313,0.657-8.718c0.34-1.196,0.706-2.285,1.256-3.141c0.534-0.862,1.269-1.431,1.939-1.678
			c0.672-0.255,1.253-0.24,1.614-0.15c0.365,0.087,0.528,0.205,0.521,0.216c0.006,0.075-0.778-0.397-2.049,0.143
			c-0.617,0.266-1.268,0.808-1.75,1.64c-0.494,0.821-0.825,1.89-1.136,3.076c-0.588,2.365-1.008,5.341-0.526,8.525
			c0.268,1.565,0.867,3.214,2.076,4.421c1.193,1.17,3.071,1.888,4.782,1.405c0.845-0.232,1.561-0.806,2.049-1.514
			c0.493-0.713,0.781-1.556,0.961-2.401c0.359-1.701,0.337-3.433,0.437-5.066c0.067-1.632,0.183-3.198,0.199-4.632
			c0.01-1.428-0.253-2.763-0.953-3.734c-0.68-0.981-1.634-1.604-2.535-1.895c-0.908-0.297-1.761-0.269-2.424-0.15
			C171.685,318.464,171.08,319.01,171.05,318.949z"/>
		
			<ellipse transform="matrix(0.9972 -0.0748 0.0748 0.9972 -23.9286 16.4351)" fill="#455A64" cx="207.488" cy="327.728" rx="5.543" ry="0.289"/>
		
			<ellipse transform="matrix(0.9607 0.2776 -0.2776 0.9607 99.5564 -44.5045)" fill="#455A64" cx="206.976" cy="329.398" rx="4.307" ry="0.29"/>
		<path fill="#455A64" d="M224.405,321.521c0.005-0.011,0.177,0.044,0.452,0.239c0.276,0.19,0.647,0.551,0.953,1.122
			c0.653,1.141,0.817,3.047,0.773,5.284c-0.034,2.241-0.187,5.013-1.401,7.813c-0.608,1.383-1.488,2.762-2.734,3.876
			c-0.612,0.552-1.337,1.073-2.211,1.319c-0.437,0.117-0.92,0.16-1.395,0.042c-0.472-0.119-0.905-0.404-1.205-0.779
			c-0.605-0.757-0.796-1.658-0.952-2.479c-0.17-0.83-0.256-1.662-0.325-2.479c-0.104-1.636-0.029-3.223,0.198-4.71
			c0.463-2.979,1.497-5.53,2.658-7.483c0.588-0.974,1.315-1.793,2.164-2.208c0.848-0.442,1.734-0.352,2.33-0.115
			c0.616,0.241,0.973,0.655,1.122,0.959c0.147,0.312,0.132,0.497,0.132,0.497c-0.028,0.008-0.063-0.167-0.233-0.438
			c-0.172-0.266-0.521-0.615-1.098-0.806c-0.563-0.186-1.36-0.232-2.104,0.19c-0.757,0.402-1.415,1.177-1.962,2.131
			c-1.088,1.931-2.061,4.443-2.482,7.352c-0.207,1.453-0.269,3-0.16,4.592c0.072,0.794,0.158,1.603,0.326,2.409
			c0.147,0.803,0.349,1.625,0.832,2.22c0.47,0.608,1.267,0.77,2.001,0.551c0.745-0.208,1.401-0.663,1.985-1.188
			c1.177-1.04,2.027-2.346,2.625-3.669c1.194-2.674,1.396-5.386,1.479-7.604c0.095-2.238-0.007-4.062-0.565-5.176
			C225.076,321.859,224.352,321.577,224.405,321.521z"/>
		<polygon fill="#263238" points="241.143,139.326 247.81,168.264 263.416,164.887 257.961,135.198 		"/>
		<polygon fill="#FFFFFF" points="242.99,140.818 248.098,163.983 261.638,160.645 256.797,137.372 		"/>
		<circle fill="#455A64" cx="255.416" cy="164.304" r="1.436"/>
		
			<rect x="246.43" y="138.378" transform="matrix(0.9757 -0.2193 0.2193 0.9757 -24.2785 58.1007)" fill="#455A64" width="6.342" height="0.091"/>
		
			<rect x="245.071" y="140.597" transform="matrix(0.9757 -0.2192 0.2192 0.9757 -25.7816 58.604)" fill="#F0F0F0" width="12.228" height="9.761"/>
		<polygon fill="#E0E0E0" points="246.611,152.678 247.516,156.066 259.224,153.393 258.396,149.703 		"/>
		<polygon fill="#EBEBEB" points="247.909,157.382 248.979,162.533 260.551,159.641 259.441,154.727 		"/>
		<path fill="#AF911D" d="M161.995,190.395c-0.313,1.742-0.787,4.386-1.342,7.488c6.83,0.285,15.044,0.648,23.885,1.059
			c9.333,0.434,17.962,0.854,25.006,1.216l-0.072-7.566c-6.968-0.29-15.441-0.665-24.588-1.089
			C176.464,191.111,168.62,190.73,161.995,190.395z"/>
		<path fill="#AF911D" d="M152.355,157.736c-1.319,2.365-2.463,4.949-3.444,7.553c7.449,0.26,21.275,0.844,37.114,1.579
			c14.087,0.653,26.589,1.28,34.417,1.714c-1.091-2.722-2.343-5.52-3.66-7.828c-7.777-0.309-18.532-0.774-30.411-1.326
			C172.516,158.785,160.205,158.169,152.355,157.736z"/>
		<path fill="#AF911D" d="M194.969,151.104c-0.558,0.713-1.133,1.291-1.719,1.772c5.339,0.253,10.347,0.498,14.847,0.725
			C202.065,151.463,194.969,151.104,194.969,151.104z"/>
		<path fill="#AF911D" d="M171.674,238.169l38.289,6.054l-0.042-4.335c-7.432-0.304-16.968-0.722-27.366-1.204
			C178.794,238.509,175.149,238.337,171.674,238.169z"/>
		<path fill="#AF911D" d="M211.023,196.55l2.904-3.776c-1.392-0.056-2.871-0.116-4.423-0.182L211.023,196.55z"/>
		<path fill="#AF911D" d="M156.019,222.238c-0.609,2.751-1.215,5.38-1.715,7.518c7.613,0.308,17.689,0.747,28.745,1.26
			c10.142,0.471,19.455,0.927,26.801,1.308l-0.072-7.584c-7.283-0.3-16.436-0.702-26.384-1.163
			C172.987,223.093,163.449,222.625,156.019,222.238z"/>
		<path fill="#AF911D" d="M154.204,230.182c-0.651,2.775-1.102,4.619-1.102,4.619l14.024,2.606
			c4.797,0.211,10.006,0.445,15.456,0.698c10.386,0.482,19.911,0.949,27.335,1.335l-0.063-6.664
			c-7.354-0.302-16.679-0.711-26.832-1.182C171.928,231.079,161.822,230.582,154.204,230.182z"/>
		<path fill="#AF911D" d="M157.697,214.287c-0.473,2.396-1.025,4.992-1.58,7.509c7.423,0.304,16.934,0.72,27.304,1.201
			c9.937,0.462,19.077,0.909,26.352,1.284l-0.072-7.579c-7.208-0.298-16.191-0.692-25.935-1.146
			C173.958,215.102,164.925,214.66,157.697,214.287z"/>
		<path fill="#AF911D" d="M146.29,173.465c-0.843,3.104-1.437,5.839-1.812,7.746c5.644,0.146,21.772,0.811,40.803,1.694
			c14.384,0.667,27.106,1.306,34.896,1.741l4.042-5.258c0,0-0.263-0.889-0.726-2.319c-7.244-0.245-21.484-0.845-37.868-1.604
			C168.031,174.648,152.922,173.875,146.29,173.465z"/>
		<path fill="#AF911D" d="M144.443,181.389c-0.318,1.635-0.468,2.615-0.468,2.615l18.418,4.174c0,0-0.114,0.633-0.311,1.73
			c6.615,0.279,14.437,0.626,22.827,1.016c11.347,0.526,21.658,1.035,29.334,1.439l5.683-7.39c-7.816-0.29-20.433-0.829-34.671-1.49
			C166.194,182.599,150.052,181.766,144.443,181.389z"/>
		<path fill="#AF911D" d="M160.567,198.359c-0.416,2.325-0.872,4.883-1.337,7.498c7.032,0.292,15.635,0.672,24.935,1.104
			c9.531,0.441,18.332,0.871,25.455,1.237l-0.072-7.57c-7.051-0.293-15.692-0.674-25.037-1.107
			C175.643,199.109,167.407,198.709,160.567,198.359z"/>
		<path fill="#AF911D" d="M148.803,165.574c-0.975,2.621-1.79,5.246-2.451,7.661c6.667,0.208,21.75,0.837,39.301,1.651
			c16.302,0.756,30.481,1.477,37.75,1.904c-0.643-1.974-1.628-4.848-2.821-7.857c-7.823-0.291-20.399-0.829-34.583-1.487
			C170.092,166.708,156.221,166.006,148.803,165.574z"/>
		<path fill="#AF911D" d="M159.146,206.324c-0.276,1.553-0.555,3.121-0.828,4.666c-0.159,0.895-0.338,1.85-0.532,2.841
			c7.22,0.298,16.229,0.694,26.006,1.147c9.731,0.452,18.703,0.891,25.904,1.262l-0.072-7.575
			c-7.131-0.296-15.944-0.683-25.486-1.126C174.811,207.105,166.187,206.686,159.146,206.324z"/>
		<path fill="#AF911D" d="M181.625,152.335c-2.357-1.575-3.941-3.351-3.941-3.351s-9.736-4.276-17.347-0.144
			c-1.147,0.623-2.223,1.45-3.233,2.435C163.657,151.537,172.168,151.904,181.625,152.335z"/>
		<path fill="#AF911D" d="M156.718,151.674c-1.547,1.595-2.935,3.551-4.17,5.716c7.863,0.298,20.097,0.821,33.85,1.46
			c11.746,0.545,22.385,1.07,30.136,1.482c-1.068-1.812-2.174-3.284-3.265-4.106c-1.068-0.806-2.343-1.485-3.712-2.062
			c-5.063-0.213-10.836-0.467-17.034-0.748c-3.387,2.255-7.056,1.195-9.901-0.459C172.58,152.484,163.547,152.036,156.718,151.674z"
			/>
		<path fill="#263238" d="M152.548,157.39c-0.065,0.114-0.128,0.231-0.193,0.347c7.849,0.433,20.16,1.049,34.016,1.691
			c11.879,0.552,22.634,1.018,30.411,1.326c-0.082-0.144-0.165-0.282-0.248-0.422c-7.751-0.412-18.39-0.938-30.136-1.482
			C172.645,158.211,160.411,157.688,152.548,157.39z"/>
		<path fill="#AF911D" d="M208.097,153.601c-4.5-0.227-9.508-0.472-14.847-0.725c-0.24,0.198-0.482,0.378-0.726,0.54
			c6.197,0.281,11.971,0.535,17.034,0.748C209.081,153.964,208.593,153.775,208.097,153.601z"/>
		<path fill="#263238" d="M157.104,151.275c-0.131,0.127-0.257,0.266-0.386,0.398c6.829,0.362,15.861,0.811,25.905,1.283
			c-0.346-0.2-0.679-0.408-0.998-0.622C172.168,151.904,163.657,151.537,157.104,151.275z"/>
		<path fill="#263238" d="M148.912,165.289c-0.036,0.096-0.073,0.19-0.108,0.285c7.418,0.432,21.289,1.134,37.195,1.872
			c14.184,0.658,26.76,1.196,34.583,1.487c-0.047-0.117-0.093-0.234-0.14-0.352c-7.828-0.434-20.33-1.061-34.417-1.714
			C170.187,166.133,156.361,165.549,148.912,165.289z"/>
		<path fill="#263238" d="M146.352,173.235c-0.022,0.078-0.041,0.152-0.062,0.229c6.632,0.41,21.741,1.184,39.336,2
			c16.383,0.76,30.624,1.359,37.868,1.604c-0.029-0.09-0.06-0.185-0.091-0.278c-7.269-0.428-21.448-1.148-37.75-1.904
			C168.102,174.072,153.019,173.443,146.352,173.235z"/>
		<path fill="#263238" d="M144.478,181.211c-0.012,0.06-0.024,0.119-0.035,0.178c5.609,0.377,21.751,1.21,40.812,2.095
			c14.238,0.661,26.855,1.2,34.671,1.49l0.252-0.327c-7.79-0.436-20.512-1.074-34.896-1.741
			C166.25,182.021,150.122,181.356,144.478,181.211z"/>
		<path fill="#263238" d="M162.082,189.908c-0.027,0.153-0.057,0.315-0.087,0.486c6.625,0.336,14.47,0.717,22.888,1.107
			c9.147,0.424,17.621,0.799,24.588,1.089l0,0l-0.001-0.091l0.035,0.092c1.552,0.065,3.031,0.126,4.423,0.182l0.315-0.41
			c-7.676-0.404-17.987-0.913-29.334-1.439C176.519,190.534,168.697,190.188,162.082,189.908z"/>
		<path fill="#263238" d="M160.652,197.883c-0.028,0.157-0.057,0.316-0.085,0.477c6.84,0.35,15.076,0.75,23.943,1.161
			c9.345,0.434,17.986,0.814,25.037,1.107c0.003,0,0.007,0.001,0.01,0.001l-0.005-0.472c-0.003,0-0.006,0-0.009,0
			c-7.043-0.361-15.673-0.782-25.006-1.216C175.697,198.531,167.482,198.168,160.652,197.883z"/>
		<path fill="#263238" d="M159.229,205.857c-0.027,0.155-0.055,0.311-0.083,0.467c7.04,0.361,15.664,0.781,24.991,1.215
			c9.542,0.443,18.355,0.83,25.486,1.126c0.006,0.001,0.012,0.001,0.018,0.001l-0.005-0.467c-0.006,0-0.012,0-0.018-0.001
			c-7.123-0.366-15.924-0.796-25.455-1.237C174.864,206.529,166.261,206.149,159.229,205.857z"/>
		<path fill="#263238" d="M157.787,213.831c-0.029,0.151-0.06,0.304-0.09,0.456c7.228,0.373,16.261,0.814,26.069,1.27
			c9.743,0.453,18.727,0.848,25.935,1.146c0.01,0.001,0.019,0.001,0.027,0.001l-0.005-0.462c-0.009-0.001-0.018-0.001-0.026-0.001
			c-7.201-0.371-16.172-0.81-25.904-1.262C174.016,214.525,165.006,214.129,157.787,213.831z"/>
		<path fill="#263238" d="M156.117,221.796c-0.033,0.148-0.065,0.296-0.098,0.442c7.43,0.387,16.968,0.854,27.375,1.338
			c9.948,0.461,19.101,0.863,26.384,1.163c0.012,0,0.023,0.001,0.036,0.001l-0.005-0.457c-0.013,0-0.024-0.001-0.036-0.002
			c-7.275-0.375-16.416-0.822-26.352-1.284C173.051,222.516,163.54,222.1,156.117,221.796z"/>
		<path fill="#263238" d="M154.304,229.756c-0.034,0.145-0.067,0.286-0.1,0.426c7.618,0.4,17.725,0.897,28.818,1.413
			c10.153,0.471,19.479,0.88,26.832,1.182c0.015,0,0.03,0.001,0.045,0.002l-0.005-0.452c-0.015-0.001-0.029-0.002-0.044-0.003
			c-7.346-0.381-16.66-0.837-26.801-1.308C171.993,230.503,161.917,230.063,154.304,229.756z"/>
		<path fill="#263238" d="M167.125,237.407l3.941,0.732c0.203,0.01,0.403,0.02,0.607,0.029c3.475,0.168,7.121,0.34,10.881,0.515
			c10.398,0.482,19.934,0.9,27.366,1.204c0.019,0.001,0.036,0.001,0.054,0.002l-0.005-0.446c-0.018-0.001-0.035-0.002-0.053-0.003
			c-7.425-0.386-16.949-0.853-27.335-1.335C177.131,237.853,171.923,237.618,167.125,237.407z"/>
		
			<ellipse transform="matrix(0.0959 0.9954 -0.9954 0.0959 374.5725 -38.5542)" fill="#263238" cx="208.509" cy="186.915" rx="13.064" ry="0.289"/>
		
			<ellipse transform="matrix(0.5614 -0.8275 0.8275 0.5614 -51.8638 247.8668)" fill="#263238" cx="207.906" cy="172.862" rx="2.145" ry="0.289"/>
		
			<ellipse transform="matrix(0.8843 -0.4669 0.4669 0.8843 -77.0077 110.3765)" fill="#263238" cx="184.226" cy="210.583" rx="17.841" ry="0.29"/>
		<path fill="#263238" d="M201.687,209.143c0.012,0.081-1.263,0.332-3.326,0.715c-2.237,0.42-4.999,0.94-8.052,1.516
			c-3.046,0.618-5.8,1.178-8.031,1.631c-2.055,0.424-3.331,0.672-3.35,0.592c-0.019-0.076,1.223-0.464,3.258-0.99
			c2.034-0.527,4.864-1.185,8.012-1.801c3.147-0.615,6.016-1.074,8.099-1.352C200.379,209.174,201.676,209.065,201.687,209.143z"/>
		<path fill="#263238" d="M163.347,178.545c0.077,0.004,0.107,0.99,0.044,2.582c-0.063,1.592-0.231,3.787-0.544,6.197
			c-0.314,2.411-0.713,4.577-1.06,6.131c-0.346,1.555-0.627,2.5-0.703,2.484c-0.081-0.018,0.059-0.991,0.301-2.56
			c0.242-1.567,0.575-3.731,0.888-6.13c0.311-2.398,0.543-4.575,0.71-6.152C163.15,179.52,163.264,178.541,163.347,178.545z"/>
		<path fill="#263238" d="M195.105,150.704c0.027,0.022-0.13,0.267-0.447,0.683c-0.32,0.414-0.792,1.01-1.477,1.666
			c-0.682,0.645-1.615,1.369-2.858,1.732c-1.236,0.367-2.685,0.32-4.091-0.039c-2.821-0.754-5.034-2.243-6.461-3.457
			c-0.714-0.613-1.239-1.166-1.58-1.564c-0.342-0.398-0.501-0.643-0.478-0.664c0.064-0.059,0.833,0.807,2.291,1.943
			c1.451,1.115,3.655,2.518,6.355,3.236c1.345,0.344,2.691,0.396,3.834,0.083c1.145-0.308,2.047-0.952,2.741-1.544
			C194.304,151.554,195.034,150.639,195.105,150.704z"/>
	</g>
</g>
</svg>
