<?xml version="1.0" encoding="utf-8"?>
<!-- Generator: Adobe Illustrator 16.0.0, SVG Export Plug-In . SVG Version: 6.00 Build 0)  -->
<!DOCTYPE svg PUBLIC "-//W3C//DTD SVG 1.1//EN" "http://www.w3.org/Graphics/SVG/1.1/DTD/svg11.dtd">
<svg version="1.1" id="Calque_1" xmlns="http://www.w3.org/2000/svg" xmlns:xlink="http://www.w3.org/1999/xlink" x="0px" y="0px"
	 width="300px" height="30px" viewBox="0 0 300 30" enable-background="new 0 0 300 30" xml:space="preserve">
<g>
	<g>
		<g>
			
				<linearGradient id="SVGID_1_" gradientUnits="userSpaceOnUse" x1="209.8811" y1="-293.938" x2="394.1795" y2="-210.0866" gradientTransform="matrix(1 0 0 -1 -147.6001 -239.9004)">
				<stop  offset="0" style="stop-color:#EEDEBC"/>
				<stop  offset="0.1507" style="stop-color:#EEDEBC"/>
				<stop  offset="0.3459" style="stop-color:#DDC6A3"/>
				<stop  offset="0.6129" style="stop-color:#C9A885"/>
				<stop  offset="0.7204" style="stop-color:#9A7A5F"/>
				<stop  offset="0.8387" style="stop-color:#C9A885"/>
				<stop  offset="1" style="stop-color:#EEDEBC"/>
			</linearGradient>
			<path fill="url(#SVGID_1_)" d="M152.069,18.799c0,0,0.124,0.086,0.364,0.258c0.237,0.174,0.601,0.424,1.073,0.752
				c0.95,0.643,2.363,1.59,4.284,2.629c0.963,0.516,2.053,1.058,3.282,1.555c0.615,0.251,1.269,0.488,1.95,0.711
				c0.688,0.219,1.405,0.425,2.16,0.596c0.755,0.17,1.544,0.313,2.362,0.422c0.82,0.102,1.67,0.162,2.546,0.182
				c0.219,0.002,0.438,0.009,0.66,0.004c0.224-0.004,0.444-0.006,0.671-0.012c0.225-0.012,0.452-0.021,0.68-0.033
				c0.228-0.01,0.457-0.036,0.687-0.055c0.921-0.082,1.861-0.211,2.815-0.396c0.95-0.185,1.909-0.435,2.859-0.767
				c0.951-0.326,1.887-0.752,2.784-1.272c0.442-0.267,0.884-0.552,1.3-0.87c0.414-0.32,0.813-0.669,1.188-1.044
				c0.735-0.759,1.385-1.631,1.839-2.612c0.46-0.979,0.75-2.052,0.829-3.164c0.017-0.138,0.015-0.278,0.022-0.417
				c0.009-0.141,0.005-0.281,0.002-0.421v-0.211c-0.002-0.07-0.009-0.139-0.013-0.209c-0.011-0.141-0.02-0.281-0.03-0.42
				c-0.063-0.559-0.175-1.114-0.341-1.658c-0.177-0.541-0.407-1.067-0.691-1.571c-0.281-0.506-0.63-0.98-1.016-1.429
				c-0.386-0.449-0.818-0.869-1.285-1.256c-0.472-0.384-0.974-0.738-1.506-1.062c-1.058-0.65-2.226-1.167-3.445-1.569
				c-1.223-0.398-2.503-0.682-3.803-0.795c-1.315-0.115-2.652-0.099-3.989,0.049c-1.336,0.157-2.67,0.444-3.984,0.847
				c-2.636,0.81-5.186,2.058-7.694,3.472c-2.518,1.412-5.007,2.991-7.614,4.486c-0.651,0.368-1.299,0.735-1.945,1.101
				c-0.643,0.365-1.279,0.737-1.916,1.107c-1.272,0.74-2.538,1.482-3.808,2.205c-2.538,1.442-5.088,2.809-7.7,3.965
				c-1.306,0.576-2.628,1.101-3.967,1.545c-1.339,0.447-2.699,0.813-4.073,1.061c-1.374,0.249-2.765,0.382-4.145,0.354
				c-0.173-0.004-0.346-0.004-0.518-0.014c-0.172-0.011-0.343-0.025-0.515-0.037l-0.257-0.02l-0.128-0.01l-0.128-0.019
				c-0.17-0.022-0.338-0.046-0.509-0.067l-0.255-0.035c-0.085-0.01-0.168-0.027-0.251-0.045c-0.167-0.031-0.334-0.065-0.5-0.098
				c-0.334-0.058-0.659-0.154-0.987-0.238c-0.328-0.074-0.646-0.197-0.965-0.303l-0.239-0.078c-0.079-0.031-0.156-0.067-0.233-0.1
				c-0.154-0.063-0.312-0.129-0.466-0.193c-0.157-0.062-0.304-0.142-0.454-0.218c-0.148-0.077-0.299-0.151-0.447-0.229
				c-0.146-0.082-0.285-0.174-0.429-0.26l-0.214-0.129l-0.105-0.066c-0.035-0.022-0.067-0.051-0.102-0.072
				c-0.135-0.1-0.269-0.195-0.403-0.295c-0.065-0.051-0.137-0.096-0.197-0.15l-0.189-0.162c-0.125-0.108-0.25-0.218-0.374-0.326
				c-0.114-0.116-0.229-0.233-0.346-0.353l-0.171-0.177c-0.056-0.063-0.104-0.126-0.157-0.188c-0.104-0.125-0.208-0.252-0.312-0.379
				c-0.099-0.133-0.187-0.267-0.279-0.398l-0.139-0.199c-0.045-0.066-0.082-0.141-0.124-0.209c-0.079-0.141-0.16-0.279-0.239-0.418
				c-0.073-0.143-0.14-0.288-0.207-0.432l-0.102-0.217c-0.033-0.072-0.058-0.148-0.087-0.223c-0.056-0.146-0.111-0.296-0.167-0.443
				c-0.048-0.147-0.089-0.3-0.135-0.449l-0.065-0.228c-0.02-0.075-0.032-0.149-0.051-0.228c-0.032-0.152-0.064-0.303-0.097-0.455
				c-0.026-0.152-0.045-0.305-0.066-0.457l-0.032-0.229c-0.011-0.076-0.013-0.154-0.02-0.229c-0.011-0.152-0.021-0.305-0.033-0.457
				c-0.007-0.151-0.003-0.302-0.007-0.454c0-0.151-0.003-0.302,0.008-0.453c0.009-0.149,0.019-0.299,0.026-0.449
				c0.008-0.149,0.033-0.297,0.049-0.445l0.026-0.222l0.013-0.11l0.02-0.108c0.026-0.146,0.054-0.291,0.079-0.437
				c0.468-2.309,1.574-4.405,3.162-5.96c0.789-0.754,1.625-1.419,2.496-1.999c0.222-0.14,0.437-0.287,0.659-0.418
				c0.226-0.128,0.448-0.255,0.67-0.383c0.455-0.233,0.905-0.467,1.367-0.658c0.92-0.394,1.847-0.715,2.773-0.931
				c0.229-0.064,0.463-0.105,0.693-0.153c0.23-0.046,0.458-0.098,0.688-0.127c0.229-0.033,0.457-0.067,0.683-0.101
				c0.227-0.022,0.453-0.043,0.678-0.065c0.224-0.026,0.446-0.033,0.668-0.043c0.111-0.005,0.223-0.009,0.331-0.015
				c0.11-0.005,0.22-0.009,0.33-0.007c0.218,0.002,0.435,0.003,0.65,0.004l0.161,0.002l0.159,0.009
				c0.107,0.006,0.214,0.012,0.318,0.018c0.105,0.006,0.211,0.012,0.316,0.019l0.155,0.01l0.156,0.016
				c0.207,0.022,0.412,0.044,0.615,0.066c0.204,0.017,0.403,0.058,0.602,0.087c0.199,0.033,0.396,0.059,0.59,0.097
				c1.553,0.296,2.954,0.75,4.192,1.27c1.241,0.521,2.318,1.109,3.253,1.685c1.856,1.181,3.141,2.305,3.973,3.093
				c0.424,0.388,0.721,0.708,0.927,0.918c0.206,0.211,0.311,0.319,0.311,0.319s-0.108-0.104-0.321-0.308
				c-0.213-0.203-0.521-0.513-0.955-0.887c-0.857-0.759-2.173-1.838-4.047-2.954c-0.942-0.545-2.025-1.096-3.261-1.575
				c-1.234-0.48-2.624-0.887-4.147-1.139c-0.191-0.032-0.385-0.053-0.58-0.081c-0.194-0.023-0.391-0.058-0.588-0.07
				c-0.199-0.016-0.401-0.033-0.604-0.05l-0.15-0.013l-0.153-0.005c-0.103-0.004-0.205-0.007-0.307-0.01
				c-0.104-0.003-0.207-0.007-0.311-0.01l-0.155-0.005l-0.155,0.002c-0.21,0.003-0.421,0.007-0.633,0.01
				c-0.105,0-0.213,0.006-0.318,0.014c-0.106,0.008-0.214,0.016-0.321,0.023c-0.215,0.014-0.431,0.025-0.646,0.056
				c-0.217,0.026-0.435,0.052-0.653,0.078c-0.219,0.038-0.438,0.075-0.659,0.113c-0.221,0.033-0.438,0.088-0.661,0.138
				c-0.22,0.051-0.443,0.095-0.664,0.162c-0.889,0.229-1.771,0.559-2.646,0.954c-1.751,0.787-3.423,1.949-4.895,3.408
				c-0.173,0.187-0.355,0.365-0.514,0.568c-0.082,0.1-0.166,0.197-0.245,0.298c-0.076,0.104-0.152,0.209-0.228,0.314l-0.114,0.157
				c-0.037,0.054-0.07,0.11-0.106,0.165c-0.069,0.11-0.14,0.22-0.21,0.331c-0.067,0.111-0.128,0.228-0.192,0.342
				c-0.063,0.116-0.134,0.228-0.188,0.349c-0.113,0.239-0.234,0.474-0.331,0.723c-0.05,0.123-0.104,0.245-0.15,0.371
				c-0.044,0.125-0.087,0.252-0.133,0.379l-0.065,0.189l-0.057,0.194c-0.036,0.13-0.073,0.259-0.111,0.389
				c-0.034,0.13-0.061,0.264-0.091,0.396c-0.028,0.133-0.063,0.264-0.081,0.398c-0.022,0.135-0.044,0.269-0.065,0.404l-0.017,0.101
				l-0.011,0.102l-0.021,0.204c-0.012,0.137-0.033,0.272-0.038,0.41c-0.005,0.137-0.01,0.274-0.016,0.412
				c-0.011,0.138-0.003,0.275,0,0.413c0.004,0.138,0.003,0.276,0.012,0.415c0.013,0.137,0.024,0.275,0.037,0.414
				c0.007,0.068,0.01,0.14,0.021,0.207l0.033,0.207c0.023,0.137,0.042,0.274,0.067,0.41c0.032,0.137,0.063,0.271,0.094,0.408
				c0.017,0.066,0.03,0.137,0.049,0.203l0.064,0.202c0.042,0.132,0.08,0.269,0.126,0.399c0.051,0.129,0.104,0.262,0.155,0.392
				c0.027,0.065,0.051,0.134,0.08,0.196l0.094,0.189c0.063,0.128,0.123,0.255,0.189,0.379c0.073,0.123,0.146,0.246,0.218,0.367
				c0.037,0.061,0.069,0.125,0.11,0.182l0.125,0.174c0.084,0.117,0.164,0.235,0.251,0.351c0.094,0.108,0.188,0.22,0.28,0.328
				c0.046,0.055,0.091,0.11,0.14,0.163l0.154,0.154c0.103,0.103,0.206,0.203,0.309,0.308c0.111,0.094,0.225,0.188,0.334,0.282
				l0.169,0.143c0.055,0.048,0.119,0.086,0.179,0.131c0.12,0.084,0.239,0.17,0.359,0.258c0.031,0.021,0.062,0.041,0.091,0.063
				l0.097,0.059l0.191,0.112c0.129,0.075,0.254,0.155,0.388,0.228c0.134,0.065,0.27,0.135,0.404,0.199
				c0.138,0.066,0.269,0.139,0.413,0.192c0.142,0.057,0.283,0.112,0.423,0.171c0.072,0.027,0.144,0.059,0.215,0.083l0.219,0.071
				c0.294,0.092,0.583,0.201,0.891,0.268c0.302,0.072,0.603,0.161,0.914,0.208c0.155,0.026,0.311,0.058,0.466,0.087
				c0.078,0.012,0.154,0.03,0.233,0.039l0.235,0.029c0.156,0.018,0.313,0.037,0.472,0.057l0.117,0.016l0.12,0.006l0.238,0.017
				c0.159,0.011,0.316,0.021,0.478,0.03c0.161,0.006,0.32,0.006,0.48,0.008c1.284,0.011,2.589-0.125,3.891-0.375
				c1.302-0.247,2.602-0.607,3.889-1.049c1.288-0.44,2.568-0.957,3.838-1.528c2.541-1.146,5.047-2.502,7.56-3.94
				c1.257-0.724,2.518-1.464,3.791-2.209c0.638-0.373,1.277-0.746,1.926-1.116c0.645-0.366,1.293-0.733,1.941-1.102
				c2.575-1.475,5.071-3.05,7.635-4.479c2.558-1.429,5.2-2.713,7.98-3.548c1.393-0.414,2.81-0.709,4.234-0.865
				c1.428-0.147,2.854-0.151,4.252-0.014c1.411,0.137,2.774,0.455,4.075,0.894c1.301,0.444,2.544,1.01,3.681,1.728
				c0.567,0.357,1.112,0.75,1.622,1.178c0.509,0.43,0.977,0.901,1.4,1.406c0.424,0.504,0.807,1.042,1.115,1.617
				c0.312,0.571,0.563,1.17,0.752,1.783c0.18,0.615,0.293,1.241,0.354,1.865c0.007,0.156,0.016,0.313,0.024,0.468
				c0.004,0.078,0.01,0.156,0.01,0.233v0.231c-0.002,0.155,0,0.309-0.016,0.462c-0.009,0.153-0.011,0.306-0.028,0.458
				c-0.108,1.225-0.453,2.409-0.978,3.479c-0.522,1.074-1.25,2.018-2.063,2.822c-0.414,0.401-0.852,0.767-1.304,1.102
				c-0.452,0.334-0.928,0.627-1.401,0.898c-0.962,0.535-1.954,0.959-2.952,1.283s-1.998,0.561-2.98,0.731
				c-0.979,0.163-1.947,0.276-2.893,0.341c-0.236,0.012-0.471,0.033-0.705,0.038c-0.233,0.007-0.465,0.011-0.697,0.019
				c-0.229,0-0.459-0.002-0.687-0.002c-0.229,0-0.452-0.015-0.678-0.021c-0.896-0.04-1.765-0.125-2.598-0.25
				c-0.835-0.13-1.632-0.296-2.396-0.488c-0.766-0.192-1.489-0.423-2.181-0.661c-0.687-0.244-1.339-0.502-1.953-0.771
				c-1.229-0.538-2.311-1.111-3.262-1.659c-1.898-1.101-3.284-2.095-4.214-2.767c-0.463-0.342-0.814-0.605-1.047-0.785
				S152.069,18.799,152.069,18.799z"/>
		</g>
		<g>
			
				<linearGradient id="SVGID_2_" gradientUnits="userSpaceOnUse" x1="210.8479" y1="-296.0654" x2="395.1484" y2="-212.2131" gradientTransform="matrix(1 0 0 -1 -147.6001 -239.9004)">
				<stop  offset="0" style="stop-color:#EEDEBC"/>
				<stop  offset="0.1507" style="stop-color:#EEDEBC"/>
				<stop  offset="0.3459" style="stop-color:#DDC6A3"/>
				<stop  offset="0.6129" style="stop-color:#C9A885"/>
				<stop  offset="0.7204" style="stop-color:#9A7A5F"/>
				<stop  offset="0.8387" style="stop-color:#C9A885"/>
				<stop  offset="1" style="stop-color:#EEDEBC"/>
			</linearGradient>
			<path fill="url(#SVGID_2_)" d="M166.51,9.833c0,0-0.116,0.018-0.333,0.05c-0.11,0.017-0.244,0.034-0.403,0.062
				c-0.156,0.028-0.339,0.062-0.544,0.098c-0.815,0.156-1.981,0.445-3.361,0.949c-1.382,0.501-2.965,1.237-4.661,2.171
				c-1.698,0.934-3.517,2.062-5.453,3.233c-0.969,0.588-1.925,1.15-2.867,1.674c-0.47,0.262-0.938,0.515-1.401,0.752
				c-0.452,0.234-0.894,0.467-1.327,0.691c-1.719,0.918-3.264,1.793-4.596,2.471c-0.166,0.084-0.328,0.168-0.486,0.248
				c-0.16,0.078-0.315,0.152-0.469,0.229c-0.303,0.146-0.59,0.283-0.858,0.412c-0.548,0.234-1.015,0.445-1.403,0.602
				c-0.786,0.297-1.219,0.45-1.219,0.45s0.399-0.233,1.122-0.641c0.357-0.212,0.785-0.484,1.287-0.788
				c0.247-0.159,0.51-0.332,0.79-0.512c0.14-0.092,0.283-0.186,0.431-0.278c0.146-0.101,0.297-0.201,0.451-0.304
				c0.617-0.414,1.291-0.867,2.011-1.353c0.364-0.241,0.74-0.493,1.13-0.747c0.395-0.254,0.797-0.514,1.219-0.775
				c0.424-0.254,0.864-0.522,1.306-0.78c0.439-0.254,0.886-0.521,1.341-0.792c0.91-0.557,1.852-1.125,2.814-1.712
				c1.938-1.172,3.834-2.25,5.643-3.095c1.806-0.846,3.519-1.453,4.995-1.804c1.475-0.355,2.698-0.48,3.539-0.512
				c0.211-0.004,0.397-0.009,0.56-0.013c0.16-0.001,0.299,0.005,0.411,0.006C166.392,9.831,166.51,9.833,166.51,9.833z"/>
		</g>
		<g>
			
				<linearGradient id="SVGID_3_" gradientUnits="userSpaceOnUse" x1="208.4856" y1="-290.8672" x2="392.783" y2="-207.0163" gradientTransform="matrix(1 0 0 -1 -147.6001 -239.9004)">
				<stop  offset="0" style="stop-color:#EEDEBC"/>
				<stop  offset="0.1507" style="stop-color:#EEDEBC"/>
				<stop  offset="0.3459" style="stop-color:#DDC6A3"/>
				<stop  offset="0.6129" style="stop-color:#C9A885"/>
				<stop  offset="0.7204" style="stop-color:#9A7A5F"/>
				<stop  offset="0.8387" style="stop-color:#C9A885"/>
				<stop  offset="1" style="stop-color:#EEDEBC"/>
			</linearGradient>
			<path fill="url(#SVGID_3_)" d="M163.081,5.121c0,0-0.115,0.018-0.333,0.05c-0.107,0.017-0.244,0.034-0.401,0.062
				c-0.16,0.028-0.341,0.062-0.546,0.099c-0.816,0.156-1.983,0.445-3.361,0.949c-1.381,0.5-2.964,1.237-4.661,2.17
				c-1.699,0.933-3.516,2.063-5.452,3.235c-0.971,0.584-1.927,1.15-2.867,1.672c-0.472,0.262-0.938,0.513-1.402,0.75
				c-0.451,0.236-0.894,0.467-1.327,0.693c-1.717,0.917-3.263,1.794-4.595,2.468c-0.166,0.088-0.329,0.168-0.487,0.252
				c-0.16,0.076-0.315,0.152-0.468,0.226c-0.304,0.146-0.59,0.282-0.859,0.412c-0.546,0.235-1.014,0.444-1.402,0.603
				c-0.785,0.295-1.218,0.449-1.218,0.449s0.399-0.232,1.121-0.641c0.358-0.209,0.786-0.482,1.287-0.786
				c0.249-0.16,0.513-0.332,0.79-0.515c0.141-0.09,0.284-0.184,0.432-0.279c0.146-0.098,0.296-0.197,0.449-0.303
				c0.617-0.414,1.291-0.865,2.013-1.35c0.362-0.243,0.738-0.495,1.13-0.75c0.395-0.251,0.797-0.514,1.218-0.774
				c0.423-0.255,0.865-0.522,1.306-0.78c0.439-0.255,0.886-0.521,1.341-0.794c0.909-0.553,1.851-1.124,2.814-1.709
				c1.937-1.173,3.834-2.251,5.643-3.097c1.807-0.845,3.519-1.451,4.993-1.802c1.479-0.356,2.701-0.481,3.542-0.512
				c0.21-0.005,0.396-0.009,0.561-0.013c0.161-0.002,0.298,0.004,0.408,0.006C162.965,5.119,163.081,5.121,163.081,5.121z"/>
		</g>
	</g>
	<g>
		<g>
			<g>
				
					<linearGradient id="SVGID_4_" gradientUnits="userSpaceOnUse" x1="235.2424" y1="-349.6885" x2="419.5429" y2="-265.8362" gradientTransform="matrix(1 0 0 -1 -147.6001 -239.9004)">
					<stop  offset="0" style="stop-color:#EEDEBC"/>
					<stop  offset="0.1507" style="stop-color:#EEDEBC"/>
					<stop  offset="0.3459" style="stop-color:#DDC6A3"/>
					<stop  offset="0.6129" style="stop-color:#C9A885"/>
					<stop  offset="0.7204" style="stop-color:#9A7A5F"/>
					<stop  offset="0.8387" style="stop-color:#C9A885"/>
					<stop  offset="1" style="stop-color:#EEDEBC"/>
				</linearGradient>
				<path fill="url(#SVGID_4_)" d="M299.027,15.659c0,0-1.601-8.508-12.522,0.047C286.504,15.707,296.803,24.354,299.027,15.659z
					 M296.517,15.707c0.002,0.227-0.185,0.41-0.414,0.41c-0.231,0.001-0.418-0.182-0.42-0.407c0-0.226,0.187-0.408,0.416-0.409
					C296.326,15.299,296.517,15.482,296.517,15.707z M289.212,15.723c0,0,0.704-2.56,5.716-0.021
					C294.928,15.701,290.254,18.329,289.212,15.723z"/>
			</g>
			
				<linearGradient id="SVGID_5_" gradientUnits="userSpaceOnUse" x1="233.8167" y1="-346.4058" x2="418.0661" y2="-262.5767" gradientTransform="matrix(1 0 0 -1 -147.6001 -239.9004)">
				<stop  offset="0" style="stop-color:#EEDEBC"/>
				<stop  offset="0.1507" style="stop-color:#EEDEBC"/>
				<stop  offset="0.3459" style="stop-color:#DDC6A3"/>
				<stop  offset="0.6129" style="stop-color:#C9A885"/>
				<stop  offset="0.7204" style="stop-color:#9A7A5F"/>
				<stop  offset="0.8387" style="stop-color:#C9A885"/>
				<stop  offset="1" style="stop-color:#EEDEBC"/>
			</linearGradient>
			<path fill="url(#SVGID_5_)" d="M285.695,16.875c-0.635,0.002-1.151-0.5-1.153-1.123l0,0c-0.002-0.622,0.511-1.128,1.145-1.131
				l0,0c0.639-0.002,1.155,0.5,1.157,1.122l0,0C286.845,16.366,286.332,16.873,285.695,16.875L285.695,16.875z"/>
			
				<linearGradient id="SVGID_6_" gradientUnits="userSpaceOnUse" x1="232.1467" y1="-343.1768" x2="416.5535" y2="-259.2762" gradientTransform="matrix(1 0 0 -1 -147.6001 -239.9004)">
				<stop  offset="0" style="stop-color:#EEDEBC"/>
				<stop  offset="0.1507" style="stop-color:#EEDEBC"/>
				<stop  offset="0.3459" style="stop-color:#DDC6A3"/>
				<stop  offset="0.6129" style="stop-color:#C9A885"/>
				<stop  offset="0.7204" style="stop-color:#9A7A5F"/>
				<stop  offset="0.8387" style="stop-color:#C9A885"/>
				<stop  offset="1" style="stop-color:#EEDEBC"/>
			</linearGradient>
			<path fill="url(#SVGID_6_)" d="M276.854,16.91c-0.635,0.003-1.152-0.5-1.154-1.123l0,0c-0.003-0.622,0.512-1.128,1.146-1.13l0,0
				c0.637-0.003,1.155,0.499,1.157,1.123l0,0C278.004,16.4,277.49,16.906,276.854,16.91L276.854,16.91z"/>
			
				<linearGradient id="SVGID_7_" gradientUnits="userSpaceOnUse" x1="232.9875" y1="-344.7827" x2="417.3063" y2="-260.9221" gradientTransform="matrix(1 0 0 -1 -147.6001 -239.9004)">
				<stop  offset="0" style="stop-color:#EEDEBC"/>
				<stop  offset="0.1507" style="stop-color:#EEDEBC"/>
				<stop  offset="0.3459" style="stop-color:#DDC6A3"/>
				<stop  offset="0.6129" style="stop-color:#C9A885"/>
				<stop  offset="0.7204" style="stop-color:#9A7A5F"/>
				<stop  offset="0.8387" style="stop-color:#C9A885"/>
				<stop  offset="1" style="stop-color:#EEDEBC"/>
			</linearGradient>
			<path fill="url(#SVGID_7_)" d="M281.27,18.751c0,0,3.938-2.985,3.902-3c0.034-0.017-3.927-2.97-3.927-2.97
				c-0.459,0.977-3.927,2.999-3.919,3.002C277.271,15.814,280.805,17.779,281.27,18.751z"/>
			<g>
				
					<linearGradient id="SVGID_8_" gradientUnits="userSpaceOnUse" x1="214.51" y1="-304.1064" x2="398.8052" y2="-220.2565" gradientTransform="matrix(1 0 0 -1 -147.6001 -239.9004)">
					<stop  offset="0" style="stop-color:#EEDEBC"/>
					<stop  offset="0.1507" style="stop-color:#EEDEBC"/>
					<stop  offset="0.3459" style="stop-color:#DDC6A3"/>
					<stop  offset="0.6129" style="stop-color:#C9A885"/>
					<stop  offset="0.7204" style="stop-color:#9A7A5F"/>
					<stop  offset="0.8387" style="stop-color:#C9A885"/>
					<stop  offset="1" style="stop-color:#EEDEBC"/>
				</linearGradient>
				<path fill="url(#SVGID_8_)" d="M178.581,15.734c-7.112-5.572-8.154-0.032-8.154-0.032
					C171.876,21.363,178.581,15.734,178.581,15.734z M172.333,15.469c0.148,0,0.271,0.12,0.271,0.265
					c0,0.147-0.123,0.266-0.272,0.266s-0.271-0.12-0.271-0.268C172.062,15.586,172.183,15.469,172.333,15.469z M173.094,15.729
					c3.264-1.652,3.724,0.015,3.724,0.015C176.138,17.439,173.094,15.729,173.094,15.729z"/>
			</g>
			
				<linearGradient id="SVGID_9_" gradientUnits="userSpaceOnUse" x1="215.5803" y1="-306.2217" x2="399.7242" y2="-222.4406" gradientTransform="matrix(1 0 0 -1 -147.6001 -239.9004)">
				<stop  offset="0" style="stop-color:#EEDEBC"/>
				<stop  offset="0.1507" style="stop-color:#EEDEBC"/>
				<stop  offset="0.3459" style="stop-color:#DDC6A3"/>
				<stop  offset="0.6129" style="stop-color:#C9A885"/>
				<stop  offset="0.7204" style="stop-color:#9A7A5F"/>
				<stop  offset="0.8387" style="stop-color:#C9A885"/>
				<stop  offset="1" style="stop-color:#EEDEBC"/>
			</linearGradient>
			<path fill="url(#SVGID_9_)" d="M179.108,16.495c0.413,0.001,0.749-0.326,0.749-0.731l0,0c0.004-0.406-0.331-0.735-0.744-0.737
				l0,0c-0.413-0.002-0.751,0.325-0.753,0.729l0,0C178.357,16.164,178.692,16.493,179.108,16.495L179.108,16.495z"/>
		</g>
		
			<linearGradient id="SVGID_10_" gradientUnits="userSpaceOnUse" x1="223.9368" y1="-324.8477" x2="408.2393" y2="-240.9943" gradientTransform="matrix(1 0 0 -1 -147.6001 -239.9004)">
			<stop  offset="0" style="stop-color:#EEDEBC"/>
			<stop  offset="0.1507" style="stop-color:#EEDEBC"/>
			<stop  offset="0.3459" style="stop-color:#DDC6A3"/>
			<stop  offset="0.6129" style="stop-color:#C9A885"/>
			<stop  offset="0.7204" style="stop-color:#9A7A5F"/>
			<stop  offset="0.8387" style="stop-color:#C9A885"/>
			<stop  offset="1" style="stop-color:#EEDEBC"/>
		</linearGradient>
		<rect x="179.857" y="15.385" fill="url(#SVGID_10_)" width="96.992" height="0.798"/>
	</g>
	<g>
		
			<linearGradient id="SVGID_11_" gradientUnits="userSpaceOnUse" x1="185.6194" y1="-240.6094" x2="369.9234" y2="-156.7555" gradientTransform="matrix(1 0 0 -1 -147.6001 -239.9004)">
			<stop  offset="0" style="stop-color:#EEDEBC"/>
			<stop  offset="0.1507" style="stop-color:#EEDEBC"/>
			<stop  offset="0.3459" style="stop-color:#DDC6A3"/>
			<stop  offset="0.6129" style="stop-color:#C9A885"/>
			<stop  offset="0.7204" style="stop-color:#9A7A5F"/>
			<stop  offset="0.8387" style="stop-color:#C9A885"/>
			<stop  offset="1" style="stop-color:#EEDEBC"/>
		</linearGradient>
		<path fill="url(#SVGID_11_)" d="M12.936,15.707C2.014,7.151,0.414,15.659,0.414,15.659C2.639,24.354,12.936,15.707,12.936,15.707z
			 M3.343,15.3c0.229,0.001,0.416,0.184,0.416,0.409c-0.001,0.225-0.189,0.408-0.419,0.407c-0.23,0-0.417-0.185-0.416-0.41
			C2.925,15.482,3.112,15.299,3.343,15.3z M4.513,15.701c5.011-2.539,5.715,0.021,5.715,0.021
			C9.185,18.329,4.513,15.701,4.513,15.701z"/>
	</g>
	
		<linearGradient id="SVGID_12_" gradientUnits="userSpaceOnUse" x1="187.1174" y1="-243.9248" x2="371.3667" y2="-160.0959" gradientTransform="matrix(1 0 0 -1 -147.6001 -239.9004)">
		<stop  offset="0" style="stop-color:#EEDEBC"/>
		<stop  offset="0.1507" style="stop-color:#EEDEBC"/>
		<stop  offset="0.3459" style="stop-color:#DDC6A3"/>
		<stop  offset="0.6129" style="stop-color:#C9A885"/>
		<stop  offset="0.7204" style="stop-color:#9A7A5F"/>
		<stop  offset="0.8387" style="stop-color:#C9A885"/>
		<stop  offset="1" style="stop-color:#EEDEBC"/>
	</linearGradient>
	<path fill="url(#SVGID_12_)" d="M13.745,16.875c0.635,0.002,1.151-0.5,1.155-1.123l0,0c0.002-0.622-0.511-1.128-1.146-1.131l0,0
		c-0.636-0.002-1.153,0.5-1.156,1.122l0,0C12.595,16.366,13.109,16.873,13.745,16.875L13.745,16.875z"/>
	
		<linearGradient id="SVGID_13_" gradientUnits="userSpaceOnUse" x1="188.6536" y1="-247.2842" x2="372.9235" y2="-163.4458" gradientTransform="matrix(1 0 0 -1 -147.6001 -239.9004)">
		<stop  offset="0" style="stop-color:#EEDEBC"/>
		<stop  offset="0.1507" style="stop-color:#EEDEBC"/>
		<stop  offset="0.3459" style="stop-color:#DDC6A3"/>
		<stop  offset="0.6129" style="stop-color:#C9A885"/>
		<stop  offset="0.7204" style="stop-color:#9A7A5F"/>
		<stop  offset="0.8387" style="stop-color:#C9A885"/>
		<stop  offset="1" style="stop-color:#EEDEBC"/>
	</linearGradient>
	<path fill="url(#SVGID_13_)" d="M22.586,16.91c0.635,0.003,1.152-0.5,1.156-1.123l0,0c0.002-0.622-0.512-1.128-1.147-1.13l0,0
		c-0.635-0.003-1.153,0.499-1.155,1.123l0,0C21.437,16.4,21.951,16.906,22.586,16.91L22.586,16.91z"/>
	
		<linearGradient id="SVGID_14_" gradientUnits="userSpaceOnUse" x1="187.8958" y1="-245.606" x2="372.2227" y2="-161.7417" gradientTransform="matrix(1 0 0 -1 -147.6001 -239.9004)">
		<stop  offset="0" style="stop-color:#EEDEBC"/>
		<stop  offset="0.1507" style="stop-color:#EEDEBC"/>
		<stop  offset="0.3459" style="stop-color:#DDC6A3"/>
		<stop  offset="0.6129" style="stop-color:#C9A885"/>
		<stop  offset="0.7204" style="stop-color:#9A7A5F"/>
		<stop  offset="0.8387" style="stop-color:#C9A885"/>
		<stop  offset="1" style="stop-color:#EEDEBC"/>
	</linearGradient>
	<path fill="url(#SVGID_14_)" d="M18.17,18.751c0,0-3.938-2.985-3.903-3c-0.034-0.017,3.928-2.97,3.928-2.97
		c0.458,0.977,3.927,2.999,3.919,3.002C22.17,15.814,18.637,17.779,18.17,18.751z"/>
	<g>
		
			<linearGradient id="SVGID_15_" gradientUnits="userSpaceOnUse" x1="206.3655" y1="-286.2329" x2="390.6856" y2="-202.3717" gradientTransform="matrix(1 0 0 -1 -147.6001 -239.9004)">
			<stop  offset="0" style="stop-color:#EEDEBC"/>
			<stop  offset="0.1507" style="stop-color:#EEDEBC"/>
			<stop  offset="0.3459" style="stop-color:#DDC6A3"/>
			<stop  offset="0.6129" style="stop-color:#C9A885"/>
			<stop  offset="0.7204" style="stop-color:#9A7A5F"/>
			<stop  offset="0.8387" style="stop-color:#C9A885"/>
			<stop  offset="1" style="stop-color:#EEDEBC"/>
		</linearGradient>
		<path fill="url(#SVGID_15_)" d="M129.015,15.702c0,0-1.042-5.54-8.155,0.032C120.86,15.734,127.565,21.363,129.015,15.702z
			 M127.38,15.732c0,0.147-0.121,0.268-0.271,0.268c-0.149,0-0.271-0.118-0.272-0.266c0-0.146,0.121-0.265,0.271-0.265
			C127.257,15.469,127.379,15.586,127.38,15.732z M122.623,15.743c0,0,0.459-1.667,3.723-0.015
			C126.345,15.729,123.303,17.439,122.623,15.743z"/>
	</g>
	
		<linearGradient id="SVGID_16_" gradientUnits="userSpaceOnUse" x1="205.3899" y1="-284.1162" x2="389.7441" y2="-200.2395" gradientTransform="matrix(1 0 0 -1 -147.6001 -239.9004)">
		<stop  offset="0" style="stop-color:#EEDEBC"/>
		<stop  offset="0.1507" style="stop-color:#EEDEBC"/>
		<stop  offset="0.3459" style="stop-color:#DDC6A3"/>
		<stop  offset="0.6129" style="stop-color:#C9A885"/>
		<stop  offset="0.7204" style="stop-color:#9A7A5F"/>
		<stop  offset="0.8387" style="stop-color:#C9A885"/>
		<stop  offset="1" style="stop-color:#EEDEBC"/>
	</linearGradient>
	<path fill="url(#SVGID_16_)" d="M120.333,16.495c-0.414,0.001-0.751-0.326-0.752-0.731l0,0c-0.001-0.406,0.333-0.735,0.747-0.737
		l0,0c0.413-0.002,0.75,0.325,0.752,0.729l0,0C121.082,16.164,120.747,16.493,120.333,16.495L120.333,16.495z"/>
	
		<linearGradient id="SVGID_17_" gradientUnits="userSpaceOnUse" x1="196.9719" y1="-265.5625" x2="381.2715" y2="-181.7106" gradientTransform="matrix(1 0 0 -1 -147.6001 -239.9004)">
		<stop  offset="0" style="stop-color:#EEDEBC"/>
		<stop  offset="0.1507" style="stop-color:#EEDEBC"/>
		<stop  offset="0.3459" style="stop-color:#DDC6A3"/>
		<stop  offset="0.6129" style="stop-color:#C9A885"/>
		<stop  offset="0.7204" style="stop-color:#9A7A5F"/>
		<stop  offset="0.8387" style="stop-color:#C9A885"/>
		<stop  offset="1" style="stop-color:#EEDEBC"/>
	</linearGradient>
	<rect x="22.59" y="15.385" fill="url(#SVGID_17_)" width="96.991" height="0.798"/>
</g>
</svg>
