<?xml version="1.0" encoding="utf-8"?>
<!-- Generator: Adobe Illustrator 16.0.0, SVG Export Plug-In . SVG Version: 6.00 Build 0)  -->
<!DOCTYPE svg PUBLIC "-//W3C//DTD SVG 1.1//EN" "http://www.w3.org/Graphics/SVG/1.1/DTD/svg11.dtd">
<svg version="1.1" id="Calque_1" xmlns="http://www.w3.org/2000/svg" xmlns:xlink="http://www.w3.org/1999/xlink" x="0px" y="0px"
	 width="300px" height="300px" viewBox="0 0 300 300" enable-background="new 0 0 300 300" xml:space="preserve">
<g>
	<g>
		<path fill="#AB911D" d="M26.006,223.525c3.799-4.693,8.306-7.041,13.519-7.041c4.146,0,7.325,1.178,9.539,3.533
			c2.214,2.354,3.321,6.547,3.321,12.576l-0.282,12.481c0,3.989,0.047,6.407,0.142,7.257c0.094,0.848,0.542,1.584,1.342,2.214
			c0.802,0.626,1.594,0.958,2.379,0.987c0.849,0,1.271,0.188,1.271,0.564c0,0.565-0.689,0.848-2.072,0.848H41.22
			c-0.533-0.125-0.799-0.391-0.799-0.801c0-0.438,0.358-0.707,1.083-0.799c2.229-0.283,3.548-1.154,3.958-2.615
			c0.407-1.459,0.61-6.101,0.61-13.92c0-8.416-0.841-13.84-2.52-16.272c-1.679-2.435-3.902-3.653-6.666-3.653
			c-2.7,0-5.079,1.03-7.136,3.088c-2.058,2.057-3.273,5.08-3.651,9.067s-0.564,8.854-0.564,14.603c0,3.894,0.203,6.438,0.611,7.629
			c0.408,1.194,1.57,1.979,3.486,2.356c0.785,0.126,1.178,0.408,1.178,0.849c0,0.502-0.377,0.752-1.131,0.752l-9.515-0.187
			c-2.042,0-3.815,0.047-5.323,0.14c-0.942,0-1.413-0.25-1.413-0.752c0-0.439,0.377-0.707,1.131-0.802
			c1.507-0.188,2.527-0.612,3.063-1.271c0.535-0.659,0.989-3.194,1.365-7.604c0.378-4.407,0.565-10.047,0.565-16.919
			c0-12.27-0.055-20.311-0.165-24.124s-0.667-6.571-1.672-8.284c-1.005-1.709-2.23-2.705-3.674-2.988
			c-0.878-0.188-1.319-0.502-1.319-0.94c0-0.251,0.103-0.401,0.307-0.448c0.203-0.047,1.217-0.07,3.038-0.07
			c3.078,0,6.391-0.11,9.939-0.33l-0.141,23.422C25.865,219.051,25.912,221.536,26.006,223.525z"/>
		<path fill="#AB911D" d="M87.478,250.043c3.423-9.287,5.622-15.602,6.594-18.943c0.973-3.34,1.461-6.016,1.461-8.023
			c0-2.604-1.633-4.049-4.899-4.33c-0.911-0.098-1.365-0.419-1.365-0.969c0-0.516,0.36-0.773,1.083-0.773
			c0.25,0,1.099,0.047,2.543,0.141c0.564,0.033,1.554,0.047,2.967,0.047c4.176,0,6.973-0.063,8.386-0.188
			c0.627-0.063,1.066-0.095,1.318-0.095c0.784,0,1.178,0.274,1.178,0.821c0,0.483-0.425,0.824-1.272,1.016
			c-2.512,0.564-4.498,2.395-5.959,5.484c-1.46,3.09-4.105,10.267-7.937,21.529c-3.738,11.012-6.745,18.961-9.021,23.842
			c-2.277,4.881-4.648,8.254-7.112,10.123c-2.466,1.867-4.892,2.801-7.277,2.801c-2.45,0-4.39-0.707-5.817-2.119
			c-1.429-1.414-2.144-2.858-2.144-4.334c0-1.194,0.479-2.245,1.438-3.155c0.958-0.91,1.938-1.365,2.944-1.365
			c2.574,0,3.972,1.287,4.191,3.863c0.124,1.726,0.896,2.59,2.309,2.59c2.261,0,4.781-2.37,7.561-7.108s4.168-8.442,4.168-11.108
			c0-2.104-1.076-5.806-3.227-11.108c-2.15-5.302-4.545-11.035-7.185-17.201c-2.637-6.166-4.436-9.789-5.393-10.871
			c-0.958-1.082-2.002-1.705-3.133-1.869c-1.036-0.133-1.555-0.461-1.555-0.984c0-0.625,0.378-0.938,1.132-0.938
			c0.313,0,0.675,0.035,1.083,0.104c1.82,0.244,3.908,0.366,6.264,0.366c5.025,0,8.087-0.1,9.186-0.299
			c0.66-0.113,1.115-0.172,1.366-0.172c0.786,0,1.178,0.299,1.178,0.896c0,0.502-0.69,0.927-2.071,1.271
			c-2.481,0.662-3.722,1.853-3.722,3.578C76.738,224.033,80.318,233.193,87.478,250.043z"/>
		<path fill="#AB911D" d="M122.807,216.673c0.157,1.353,0.235,2.576,0.235,3.675c0,0.941-0.078,2.309-0.235,4.098
			c3.108-2.95,5.487-4.858,7.136-5.723c1.649-0.865,3.493-1.295,5.536-1.295c4.836,0,8.957,1.985,12.364,5.959
			c3.406,3.973,5.113,8.643,5.113,14.014c0,5.81-1.949,10.559-5.845,14.25c-3.893,3.688-8.431,5.531-13.611,5.531
			c-3.58,0-7.146-1.051-10.693-3.152c-0.535,3.861-0.801,8.115-0.801,12.765c0,2.729,0.11,4.853,0.33,6.358l0.142,1.838
			c0.595,1.979,2.183,3.218,4.757,3.721c0.878,0.189,1.351,0.549,1.413,1.084l-0.141,0.471l-0.332,0.188
			c-3.871-0.22-6.908-0.33-9.111-0.33c-5.57,0-8.923,0.048-10.057,0.142c-0.724,0-1.086-0.267-1.086-0.802
			c0-0.502,0.313-0.784,0.942-0.847c2.921-0.314,4.75-0.975,5.488-1.979c0.738-1.006,1.208-5.459,1.413-13.354
			c0.204-7.897,0.306-12.837,0.306-14.815l-0.141-12.813l0.047-7.631c0-3.957-0.267-6.483-0.801-7.584
			c-0.534-1.1-1.9-1.728-4.098-1.885c-0.724-0.063-1.083-0.328-1.083-0.801c0-0.281,0.133-0.502,0.4-0.658
			c0.269-0.158,1.693-0.252,4.278-0.283L122.807,216.673z M122.429,237.635c0,5.747,0.141,9.422,0.424,11.021
			c0.282,1.602,1.295,3.094,3.039,4.477c1.743,1.383,4.027,2.071,6.854,2.071c3.832,0,6.909-1.642,9.232-4.923
			c2.323-3.279,3.486-7.293,3.486-12.035c0-5.4-1.187-9.727-3.557-12.977c-2.371-3.25-5.27-4.875-8.691-4.875
			c-3.329,0-5.958,1.381-7.89,4.145S122.429,231.668,122.429,237.635z"/>
		<path fill="#AB911D" d="M170.852,216.626c0.755,1.854,1.209,4.978,1.367,9.373c1.947-3.077,4.104-5.384,6.477-6.924
			c2.37-1.538,4.953-2.31,7.75-2.31c2.137,0,4.199,0.4,6.192,1.201c1.994,0.799,3.534,2.18,4.616,4.141
			c1.085,1.961,1.626,5.291,1.626,9.996l-0.282,15.855c0,2.917,0.242,4.743,0.73,5.479c0.484,0.738,1.529,1.328,3.132,1.766
			c1.099,0.314,1.648,0.658,1.648,1.038c0,0.472-0.27,0.704-0.802,0.704c-0.22,0-0.438-0.014-0.66-0.041
			c-1.441-0.286-3.578-0.428-6.404-0.428c-2.543,0-5.276,0.107-8.197,0.328c-1.163,0-1.742-0.268-1.742-0.801
			c0-0.377,0.313-0.628,0.942-0.754c1.726-0.377,2.856-0.77,3.392-1.176c0.534-0.408,0.911-0.948,1.131-1.623
			c0.22-0.676,0.4-2.939,0.542-6.797c0.141-3.858,0.211-6.993,0.211-9.41c0-6.616-0.833-11.021-2.498-13.219
			c-1.662-2.195-3.734-3.293-6.216-3.293c-3.674,0-6.729,1.986-9.162,5.959c-2.434,3.974-3.65,10.592-3.65,19.854
			c0,4.21,0.274,6.887,0.824,8.033s1.924,1.846,4.121,2.096c0.69,0.063,1.037,0.361,1.037,0.896c0,0.438-0.346,0.658-1.034,0.658
			l-2.442-0.188c-0.877-0.063-3.773-0.096-8.69-0.096l-3.76,0.096c-1.378,0-2.066-0.252-2.066-0.754
			c0-0.534,0.748-0.941,2.245-1.227c1.434-0.281,2.398-0.777,2.898-1.484c0.498-0.708,0.833-3.059,1.005-7.053
			c0.172-3.992,0.258-8.977,0.258-14.951c0-5.564-0.377-9.024-1.131-10.377c-0.755-1.35-1.807-2.184-3.156-2.5
			c-1.225-0.28-1.837-0.674-1.837-1.176c0-0.535,0.471-0.804,1.413-0.804l3.815,0.048
			C164.901,216.768,167.021,216.719,170.852,216.626z"/>
		<path fill="#AB911D" d="M210.326,237.281c0-5.521,1.993-10.383,5.982-14.588c3.986-4.2,8.885-6.305,14.696-6.305
			c5.463,0,10.166,1.885,14.106,5.647c3.94,3.764,5.911,8.468,5.911,14.114c0,5.709-2.07,10.721-6.218,15.033
			c-4.145,4.313-8.98,6.469-14.507,6.469c-5.466,0-10.159-1.981-14.086-5.951C212.289,247.734,210.326,242.928,210.326,237.281z
			 M217.957,236.998c0,5.396,1.248,9.879,3.744,13.455c2.495,3.576,5.583,5.363,9.257,5.363c3.358,0,6.318-1.676,8.879-5.033
			c2.559-3.355,3.84-7.809,3.84-13.36c0-4.956-1.233-9.37-3.697-13.243c-2.467-3.873-5.662-5.811-9.587-5.811
			c-3.643,0-6.626,1.764-8.95,5.291C219.118,227.189,217.957,231.637,217.957,236.998z"/>
		<path fill="#AB911D" d="M287.86,244.49c0,3.637-1.348,6.763-4.044,9.38c-2.694,2.616-5.894,3.925-9.591,3.925
			c-2.196,0-4.813-0.705-7.853-2.119c-1.662-0.754-2.649-1.129-2.963-1.129c-0.532,0-1.005,0.328-1.411,0.987
			c-0.513,0.879-0.992,1.319-1.44,1.319c-0.386,0-0.627-0.447-0.722-1.342c-0.098-0.896-0.16-2.931-0.191-6.103
			c-0.033-2.729-0.08-4.489-0.143-5.275c0-1.159,0.307-1.743,0.92-1.743c0.354,0,0.63,0.301,0.823,0.896
			c1.218,3.581,2.931,6.618,5.134,9.116c2.205,2.496,4.791,3.744,7.762,3.744c2.095,0,3.954-0.65,5.581-1.955
			c1.625-1.303,2.438-3.067,2.438-5.299c0-3.453-2.992-6.517-8.978-9.186c-4.105-1.837-6.847-3.182-8.226-4.029
			c-1.38-0.849-2.46-1.996-3.243-3.441c-0.783-1.446-1.176-3.02-1.176-4.717c0-3.237,1.229-5.949,3.681-8.135
			c2.454-2.186,5.428-3.277,8.921-3.277c2.582,0,5.413,0.801,8.498,2.402c0.503,0.252,0.943,0.375,1.319,0.375
			c0.314,0,0.66-0.256,1.04-0.775c0.364-0.486,0.654-0.729,0.87-0.729c0.276,0,0.489,0.119,0.643,0.354
			c0.153,0.236,0.325,1.623,0.512,4.162c0.189,2.537,0.284,4.623,0.284,6.264c0,1.01-0.269,1.516-0.802,1.516
			c-0.473,0-0.85-0.455-1.13-1.361c-0.253-0.846-1.007-2.457-2.264-4.832c-1.255-2.377-2.63-3.896-4.121-4.553
			c-1.491-0.654-2.959-0.982-4.402-0.982c-2.262,0-4.114,0.548-5.56,1.645c-1.444,1.098-2.168,2.523-2.168,4.279
			c0,1.098,0.3,2.085,0.896,2.961c0.597,0.879,1.153,1.537,1.673,1.977c0.519,0.438,3.51,1.89,8.973,4.353
			c3.394,1.536,5.622,2.722,6.691,3.551c1.064,0.832,1.961,1.952,2.682,3.361C287.5,241.482,287.86,242.954,287.86,244.49z"/>
	</g>
	<g>
		<path fill="#AB911D" d="M95.947,26.587v139.362l-28.296,1.587v-2.38c4.231-1.145,7.846-3.438,10.843-6.875
			c2.819-3.35,4.671-7.273,5.554-11.769c0.879-4.406,1.322-12.075,1.322-23.006V62.551c0-12.958-1.677-21.771-5.024-26.444
			c-3.263-4.671-7.494-7.58-12.694-8.727V25C73.116,25.707,82.547,26.236,95.947,26.587z M194.454,26.587v139.362
			c-3.88,0.087-13.577,0.615-29.09,1.587v-2.38c5.375-1.145,9.784-4.186,13.223-9.123c3.438-4.936,5.156-14.455,5.156-28.56V99.574
			h-67.169v32.13c0,12.429,1.762,20.805,5.288,25.122c3.613,4.32,7.977,7.098,13.091,8.33v2.38
			c-10.932-0.882-20.673-1.411-29.222-1.587V26.587c7.756,0,17.497-0.529,29.222-1.587v2.38c-6.965,1.94-11.769,5.599-14.412,10.975
			c-2.646,5.378-3.967,14.677-3.967,27.899v22.081h67.169V63.08c0-11.018-1.454-19.348-4.363-24.99
			c-3.086-5.553-7.758-9.123-14.016-10.71V25C174.885,26.058,184.58,26.587,194.454,26.587z M204.238,165.949V26.587
			c9.52,0,19.084-0.529,28.693-1.587v2.38c-11.195,3.173-17.014,13.84-17.453,31.998L215.08,71.94v59.765
			c0,19.747,5.952,30.896,17.852,33.451v2.381C216.183,166.479,206.618,165.949,204.238,165.949z"/>
	</g>
</g>
</svg>
