<?xml version="1.0" encoding="utf-8"?>
<!-- Generator: Adobe Illustrator 16.0.0, SVG Export Plug-In . SVG Version: 6.00 Build 0)  -->
<!DOCTYPE svg PUBLIC "-//W3C//DTD SVG 1.1//EN" "http://www.w3.org/Graphics/SVG/1.1/DTD/svg11.dtd">
<svg version="1.1" id="Calque_1" xmlns="http://www.w3.org/2000/svg" xmlns:xlink="http://www.w3.org/1999/xlink" x="0px" y="0px"
	 width="300" height="30" viewBox="0 0 458.323 35.333" enable-background="new 0 0 458.323 35.333"
	 xml:space="preserve">
<g>
	<g>
		<rect x="230.129" y="17.771" fill="#931F1D" width="166.204" height="2.361"/>
		<rect x="63.803" y="17.771" fill="#931F1D" width="166.203" height="2.361"/>
	</g>
	<g>
		<g>
			<path fill="#931F1D" d="M9.464,25.665c-0.082,0.166-0.234,0.287-0.471,0.344c-0.234,0.051-0.55,0.02-0.905-0.15
				c-0.352-0.168-0.728-0.504-0.984-0.977c-0.262-0.471-0.378-1.066-0.313-1.643c0.023-0.291,0.123-0.654,0.295-1.037
				c0.173-0.381,0.435-0.773,0.768-1.123c0.331-0.35,0.732-0.656,1.163-0.896c0.431-0.242,0.89-0.414,1.337-0.529
				c0.449-0.105,0.883-0.156,1.275-0.166c0.196,0,0.382,0.004,0.555,0.016c0.174,0.02,0.333,0.033,0.479,0.059
				c0.145,0.027,0.275,0.055,0.389,0.082c0.113,0.029,0.21,0.064,0.289,0.094c0.157,0.061,0.242,0.113,0.24,0.156
				c-0.001,0.037-0.089,0.086-0.242,0.143c-0.17,0.057-0.38,0.129-0.62,0.211c-0.126,0.045-0.261,0.1-0.402,0.152
				c-0.141,0.059-0.287,0.123-0.436,0.191c-0.296,0.143-0.597,0.314-0.877,0.512c-0.277,0.201-0.529,0.428-0.735,0.666
				c-0.207,0.238-0.367,0.486-0.479,0.717c-0.114,0.23-0.177,0.445-0.209,0.619c-0.013,0.043-0.014,0.084-0.021,0.123
				s-0.015,0.076-0.015,0.109c-0.002,0.033-0.007,0.064-0.012,0.094c0,0.029-0.002,0.055-0.005,0.078
				c-0.021,0.193-0.038,0.35-0.05,0.506c-0.013,0.154-0.023,0.324-0.005,0.512C9.498,24.901,9.63,25.327,9.464,25.665z"/>
		</g>
		<path fill="#931F1D" d="M6.487,19.753c2.456-0.957,5.86-1.119,6.309-1.137c0.029-0.002,0.05-0.018,0.051-0.037l1.214-0.973
			c0.161-0.129,0.169-0.366,0.019-0.505l-1.142-1.053c0.001-0.019-0.02-0.036-0.048-0.039c-0.446-0.048-3.571-0.39-6.212-1.564
			c-0.021-0.009-3.941,1.957-4.762,2.401c-0.083,0.045-0.086,0.138-0.007,0.188C2.696,17.534,6.466,19.761,6.487,19.753z"/>
		<g>
			<path fill="#931F1D" d="M10.076,8.616c-0.07-0.172-0.213-0.303-0.446-0.374C9.4,8.174,9.082,8.184,8.716,8.329
				C8.353,8.474,7.955,8.783,7.665,9.237c-0.295,0.452-0.453,1.038-0.43,1.617c0.002,0.293,0.076,0.661,0.22,1.055
				C7.6,12.301,7.833,12.71,8.14,13.081c0.305,0.372,0.683,0.706,1.096,0.975c0.413,0.27,0.859,0.474,1.296,0.618
				c0.441,0.137,0.87,0.216,1.261,0.252c0.196,0.015,0.381,0.021,0.555,0.022c0.174-0.006,0.334-0.01,0.481-0.025
				c0.146-0.018,0.278-0.037,0.394-0.056c0.115-0.021,0.214-0.05,0.295-0.074c0.161-0.05,0.249-0.097,0.251-0.14
				c0.001-0.037-0.083-0.091-0.23-0.158c-0.166-0.07-0.371-0.156-0.604-0.253c-0.123-0.053-0.253-0.118-0.392-0.179
				c-0.136-0.068-0.277-0.142-0.421-0.22c-0.284-0.163-0.572-0.355-0.838-0.57c-0.262-0.22-0.497-0.464-0.686-0.715
				c-0.189-0.251-0.332-0.509-0.427-0.747c-0.096-0.238-0.144-0.456-0.163-0.632c-0.01-0.044-0.008-0.085-0.012-0.125
				s-0.009-0.076-0.007-0.109c0-0.034-0.002-0.065-0.005-0.095c0.002-0.028,0.002-0.055,0-0.079
				c-0.006-0.194-0.013-0.351-0.014-0.506c-0.001-0.155,0-0.326,0.031-0.512C10.054,9.379,10.216,8.964,10.076,8.616z"/>
		</g>
		<g>
			<path fill="#931F1D" d="M13.84,8.764c-0.107-0.095-0.136-0.267-0.089-0.513c0.048-0.246,0.17-0.565,0.382-0.939
				c0.102-0.19,0.229-0.391,0.38-0.604c0.146-0.217,0.321-0.442,0.52-0.677c0.395-0.472,0.891-0.983,1.527-1.485
				c0.633-0.502,1.405-1.003,2.35-1.404c0.943-0.391,2.073-0.682,3.294-0.692c1.22-0.027,2.492,0.232,3.665,0.688
				c1.171,0.461,2.254,1.104,3.23,1.841c0.985,0.733,2.135,1.791,3.306,3.089c1.178,1.295,2.384,2.826,3.616,4.457
				c1.235,1.627,2.495,3.364,3.854,4.99c0.34,0.404,0.686,0.803,1.041,1.183c0.178,0.189,0.356,0.379,0.539,0.559
				c0.092,0.096,0.18,0.178,0.267,0.258c0.088,0.08,0.174,0.164,0.264,0.242c0.73,0.625,1.566,1.166,2.468,1.576
				c0.897,0.42,1.849,0.729,2.803,0.922c0.953,0.197,1.908,0.301,2.827,0.297c1.84,0.002,3.519-0.375,4.842-0.928
				c0.665-0.271,1.243-0.586,1.728-0.902c0.493-0.309,0.884-0.629,1.208-0.893c0.31-0.275,0.558-0.494,0.719-0.652
				c0.167-0.152,0.27-0.225,0.297-0.207c0.024,0.018-0.02,0.129-0.127,0.332c-0.101,0.205-0.287,0.484-0.544,0.836
				c-0.27,0.338-0.614,0.75-1.079,1.164c-0.456,0.422-1.024,0.857-1.704,1.258c-1.351,0.809-3.156,1.473-5.228,1.715
				c-1.035,0.127-2.133,0.137-3.259,0.031c-1.127-0.105-2.281-0.342-3.419-0.734c-1.141-0.385-2.256-0.943-3.289-1.666
				c-0.129-0.092-0.253-0.189-0.379-0.285c-0.128-0.096-0.252-0.191-0.363-0.285c-0.232-0.189-0.455-0.383-0.677-0.578
				c-0.44-0.391-0.86-0.791-1.269-1.195c-1.627-1.62-3.06-3.282-4.405-4.794c-1.34-1.517-2.584-2.889-3.71-4
				c-1.122-1.117-2.121-1.963-2.892-2.538c-0.769-0.582-1.537-1.052-2.28-1.395c-0.745-0.334-1.462-0.541-2.158-0.606
				c-0.695-0.078-1.38-0.011-2.046,0.129c-0.664,0.149-1.301,0.38-1.888,0.635c-0.589,0.252-1.125,0.532-1.604,0.788
				c-0.241,0.126-0.468,0.246-0.678,0.362c-0.201,0.104-0.397,0.205-0.591,0.305C14.557,8.805,14.061,8.958,13.84,8.764z"/>
		</g>
		<g>
			<path fill="#931F1D" d="M26.621,17.979c0.393-0.053,0.75,1.095,1.605,2.534c0.11,0.178,0.222,0.361,0.356,0.537
				c0.121,0.186,0.274,0.352,0.417,0.533c0.309,0.342,0.659,0.668,1.067,0.949c0.81,0.566,1.869,0.936,3.102,1.049
				c0.614,0.059,1.447,0.074,2.438-0.047c0.989-0.123,2.132-0.375,3.315-0.803c1.169-0.41,2.426-1.049,3.735-1.689
				c1.311-0.641,2.69-1.316,4.145-1.76c1.445-0.455,2.943-0.662,4.296-0.574c1.363,0.078,2.513,0.395,3.471,0.615
				c0.479,0.121,0.911,0.209,1.295,0.293c0.383,0.072,0.717,0.123,0.993,0.172c0.55,0.053,0.869,0.102,0.871,0.143
				c0.002,0.037-0.309,0.086-0.882,0.146c-0.284,0.008-0.635,0.018-1.039,0.006c-0.401-0.021-0.86-0.049-1.354-0.102
				c-0.99-0.092-2.146-0.252-3.354-0.178c-1.214,0.061-2.502,0.381-3.75,0.916c-1.255,0.523-2.479,1.268-3.718,2.016
				c-1.242,0.748-2.485,1.52-3.819,2.105c-1.312,0.586-2.622,0.969-3.813,1.18c-1.192,0.207-2.267,0.227-3.091,0.148
				c-0.824-0.078-1.638-0.264-2.39-0.564s-1.437-0.719-2-1.209c-0.565-0.49-1.004-1.043-1.339-1.586
				c-0.155-0.279-0.308-0.545-0.413-0.813c-0.122-0.264-0.206-0.525-0.281-0.773c-0.294-0.994-0.309-1.811-0.259-2.363
				C26.301,18.302,26.439,17.998,26.621,17.979z"/>
		</g>
		<g>
			<path fill="#931F1D" d="M49.442,27.046c-0.005-0.119,0.104-0.24,0.3-0.355c0.098-0.059,0.218-0.115,0.356-0.172
				c0.137-0.059,0.293-0.121,0.465-0.178c0.687-0.238,1.609-0.502,2.599-0.838c0.492-0.174,1.296-0.447,2.173-0.898
				c0.88-0.445,1.817-1.088,2.643-1.787c0.208-0.172,0.401-0.357,0.598-0.529c0.086-0.086,0.172-0.17,0.257-0.256
				c0.083-0.086,0.16-0.182,0.238-0.27c0.307-0.365,0.576-0.73,0.819-1.031c0.245-0.305,0.466-0.541,0.635-0.689
				c0.176-0.146,0.28-0.215,0.301-0.195c0.019,0.016-0.037,0.129-0.145,0.313c-0.103,0.189-0.241,0.461-0.4,0.803
				c-0.16,0.344-0.342,0.754-0.586,1.205c-0.065,0.113-0.126,0.229-0.201,0.346c-0.077,0.113-0.156,0.234-0.238,0.35
				c-0.169,0.215-0.335,0.443-0.521,0.662c-0.735,0.885-1.65,1.748-2.579,2.375c-0.924,0.633-1.829,1.037-2.399,1.238
				c-1.15,0.391-2.257,0.486-3.041,0.42c-0.196-0.02-0.374-0.041-0.529-0.072c-0.156-0.037-0.289-0.078-0.398-0.123
				C49.567,27.272,49.448,27.167,49.442,27.046z"/>
		</g>
		<g>
			<path fill="#931F1D" d="M13.223,26.011c0.233-0.178,0.717,0.008,1.42,0.418c0.186,0.113,0.375,0.227,0.567,0.344
				c0.201,0.129,0.419,0.266,0.65,0.408c0.46,0.287,0.975,0.604,1.544,0.895c0.567,0.293,1.187,0.566,1.838,0.762
				c0.654,0.184,1.332,0.297,2.032,0.268c0.699-0.018,1.429-0.176,2.196-0.459c0.766-0.291,1.566-0.707,2.375-1.236
				c0.81-0.52,1.867-1.299,3.064-2.336c1.201-1.033,2.539-2.32,3.982-3.742c1.448-1.42,2.994-2.982,4.732-4.49
				c0.437-0.376,0.883-0.748,1.351-1.108c0.235-0.18,0.471-0.358,0.716-0.532c0.118-0.086,0.248-0.174,0.383-0.262
				c0.133-0.086,0.265-0.176,0.399-0.259c1.084-0.652,2.239-1.137,3.405-1.443c1.165-0.316,2.336-0.476,3.469-0.504
				c1.133-0.03,2.23,0.054,3.255,0.251c2.054,0.383,3.812,1.17,5.104,2.072c0.65,0.447,1.187,0.921,1.611,1.376
				c0.434,0.446,0.748,0.882,0.992,1.24c0.229,0.37,0.394,0.662,0.477,0.876c0.09,0.211,0.122,0.328,0.094,0.346
				c-0.025,0.014-0.119-0.068-0.272-0.232c-0.146-0.17-0.376-0.407-0.665-0.706c-0.303-0.287-0.669-0.635-1.139-0.979
				c-0.461-0.352-1.016-0.706-1.661-1.024c-1.283-0.644-2.935-1.136-4.774-1.259c-0.918-0.066-1.881-0.028-2.848,0.104
				c-0.968,0.131-1.94,0.375-2.867,0.733c-0.931,0.35-1.805,0.835-2.579,1.411c-0.096,0.073-0.187,0.151-0.281,0.226
				c-0.092,0.073-0.187,0.15-0.285,0.239c-0.195,0.168-0.387,0.345-0.578,0.521c-0.381,0.356-0.754,0.73-1.122,1.113
				c-1.47,1.531-2.85,3.18-4.195,4.721c-1.345,1.545-2.656,2.992-3.922,4.205c-1.26,1.215-2.482,2.193-3.518,2.857
				c-1.026,0.67-2.153,1.236-3.354,1.617c-1.202,0.375-2.489,0.547-3.705,0.436c-1.218-0.092-2.324-0.459-3.237-0.914
				c-0.913-0.463-1.647-1.016-2.243-1.559c-0.598-0.545-1.057-1.088-1.417-1.586c-0.182-0.248-0.339-0.484-0.47-0.711
				c-0.135-0.223-0.248-0.432-0.336-0.629c-0.185-0.387-0.284-0.715-0.313-0.963C13.067,26.269,13.108,26.099,13.223,26.011z"/>
		</g>
		<g>
			<path fill="#931F1D" d="M26.631,17.688c-0.18-0.032-0.296-0.344-0.33-0.905c-0.01-0.557,0.063-1.369,0.427-2.342
				c0.093-0.242,0.195-0.496,0.335-0.751c0.125-0.261,0.296-0.516,0.47-0.782c0.373-0.52,0.851-1.041,1.449-1.491
				c0.596-0.451,1.309-0.823,2.081-1.071c0.771-0.25,1.598-0.379,2.425-0.401c0.828-0.023,1.898,0.07,3.074,0.357
				c1.173,0.29,2.454,0.76,3.722,1.431c1.29,0.674,2.476,1.528,3.662,2.357c1.183,0.829,2.352,1.652,3.565,2.258
				c1.206,0.616,2.465,1.022,3.669,1.165c1.197,0.154,2.361,0.073,3.355,0.05c0.497-0.019,0.957-0.014,1.359-0.007
				c0.404,0.017,0.753,0.051,1.037,0.08c0.567,0.102,0.874,0.177,0.869,0.217c-0.005,0.036-0.325,0.059-0.879,0.072
				c-0.278,0.029-0.616,0.054-1.004,0.1c-0.389,0.056-0.827,0.115-1.314,0.202c-0.971,0.155-2.14,0.391-3.503,0.377
				c-1.353-0.006-2.83-0.312-4.239-0.861c-1.417-0.54-2.746-1.304-4.009-2.032c-1.261-0.728-2.471-1.448-3.608-1.937
				c-1.15-0.505-2.274-0.833-3.252-1.022c-0.98-0.187-1.813-0.226-2.429-0.21c-1.238,0.029-2.321,0.324-3.17,0.835
				c-0.427,0.252-0.8,0.556-1.132,0.875c-0.156,0.17-0.32,0.327-0.454,0.503c-0.146,0.166-0.271,0.341-0.394,0.51
				C27.458,16.648,27.02,17.768,26.631,17.688z"/>
		</g>
		<path fill="#931F1D" d="M19.927,20.231c1.492,0.051,2.743-1.086,2.795-2.539c0.052-1.454-1.115-2.673-2.606-2.724
			s-2.743,1.086-2.795,2.54C17.269,18.962,18.436,20.181,19.927,20.231z"/>
		<path fill="#931F1D" d="M63.842,21.589c1.338,0.045,2.461-0.975,2.508-2.279c0.047-1.303-1-2.397-2.339-2.442
			c-1.338-0.045-2.461,0.975-2.507,2.278C61.458,20.45,62.504,21.544,63.842,21.589z"/>
		<g>
			<path fill="#931F1D" d="M50.04,10.373c0.014-0.119,0.141-0.217,0.365-0.292c0.112-0.038,0.249-0.069,0.406-0.094
				c0.157-0.021,0.336-0.031,0.534-0.036c0.787-0.014,1.883,0.156,3.003,0.625c0.555,0.238,1.43,0.703,2.307,1.396
				c0.884,0.687,1.737,1.608,2.409,2.54c0.171,0.231,0.321,0.47,0.474,0.696c0.074,0.12,0.145,0.247,0.214,0.366
				c0.066,0.121,0.119,0.242,0.176,0.358c0.212,0.467,0.364,0.891,0.498,1.243c0.134,0.352,0.252,0.632,0.339,0.829
				c0.092,0.191,0.137,0.31,0.115,0.327c-0.02,0.015-0.117-0.062-0.28-0.219c-0.156-0.161-0.358-0.413-0.58-0.732
				c-0.221-0.318-0.463-0.701-0.743-1.086c-0.073-0.093-0.142-0.193-0.22-0.285c-0.079-0.09-0.158-0.182-0.239-0.273
				c-0.184-0.185-0.363-0.382-0.559-0.568c-0.775-0.752-1.666-1.456-2.514-1.958c-0.845-0.509-1.627-0.834-2.106-1.042
				c-0.963-0.402-1.864-0.727-2.533-1.012c-0.167-0.069-0.318-0.141-0.451-0.21c-0.134-0.064-0.25-0.129-0.343-0.194
				C50.126,10.621,50.026,10.492,50.04,10.373z"/>
		</g>
	</g>
	<g>
		<g>
			<path fill="#931F1D" d="M450.71,25.665c0.084,0.166,0.234,0.287,0.473,0.344c0.232,0.051,0.551,0.02,0.904-0.15
				c0.352-0.168,0.727-0.504,0.984-0.977c0.262-0.471,0.377-1.066,0.313-1.643c-0.021-0.291-0.123-0.654-0.295-1.037
				c-0.172-0.381-0.434-0.773-0.768-1.123c-0.33-0.35-0.73-0.656-1.162-0.896c-0.432-0.242-0.891-0.414-1.336-0.529
				c-0.449-0.105-0.885-0.156-1.277-0.166c-0.195,0-0.381,0.004-0.555,0.016c-0.172,0.02-0.332,0.033-0.479,0.059
				c-0.145,0.027-0.273,0.055-0.389,0.082c-0.113,0.029-0.209,0.064-0.287,0.094c-0.158,0.061-0.242,0.113-0.24,0.156
				c0,0.037,0.088,0.086,0.24,0.143c0.17,0.057,0.381,0.129,0.621,0.211c0.125,0.045,0.26,0.1,0.402,0.152
				c0.141,0.059,0.287,0.123,0.436,0.191c0.295,0.143,0.598,0.314,0.877,0.512c0.277,0.201,0.529,0.428,0.734,0.666
				c0.207,0.238,0.367,0.486,0.48,0.717s0.176,0.445,0.207,0.619c0.014,0.043,0.014,0.084,0.021,0.123
				c0.006,0.039,0.014,0.076,0.014,0.109c0.004,0.033,0.008,0.064,0.012,0.094c0,0.029,0.002,0.055,0.006,0.078
				c0.02,0.193,0.037,0.35,0.051,0.506c0.012,0.154,0.023,0.324,0.004,0.512C450.677,24.901,450.546,25.327,450.71,25.665z"/>
		</g>
		<path fill="#931F1D" d="M453.688,19.753c-2.457-0.957-5.859-1.119-6.309-1.137c-0.029-0.002-0.051-0.018-0.051-0.037l-1.215-0.973
			c-0.16-0.129-0.168-0.366-0.018-0.505l1.141-1.053c0-0.019,0.02-0.036,0.049-0.039c0.447-0.048,3.57-0.39,6.211-1.564
			c0.021-0.009,3.941,1.957,4.762,2.401c0.084,0.045,0.086,0.138,0.008,0.188C457.479,17.534,453.71,19.761,453.688,19.753z"/>
		<g>
			<path fill="#931F1D" d="M450.099,8.616c0.07-0.172,0.215-0.303,0.447-0.374c0.229-0.067,0.547-0.058,0.912,0.087
				c0.363,0.145,0.762,0.454,1.053,0.908c0.295,0.452,0.453,1.038,0.43,1.617c-0.002,0.293-0.076,0.661-0.221,1.055
				c-0.145,0.393-0.377,0.802-0.684,1.172c-0.307,0.372-0.684,0.706-1.096,0.975c-0.414,0.27-0.859,0.474-1.297,0.618
				c-0.439,0.137-0.869,0.216-1.26,0.252c-0.197,0.015-0.383,0.021-0.555,0.022c-0.176-0.006-0.336-0.01-0.482-0.025
				c-0.146-0.018-0.277-0.037-0.393-0.056c-0.115-0.021-0.215-0.05-0.295-0.074c-0.162-0.05-0.25-0.097-0.252-0.14
				c0-0.037,0.084-0.091,0.232-0.158c0.164-0.07,0.369-0.156,0.604-0.253c0.123-0.053,0.252-0.118,0.391-0.179
				c0.135-0.068,0.277-0.142,0.42-0.22c0.285-0.163,0.574-0.355,0.838-0.57c0.262-0.22,0.498-0.464,0.686-0.715
				c0.189-0.251,0.332-0.509,0.428-0.747c0.096-0.238,0.145-0.456,0.164-0.632c0.01-0.044,0.006-0.085,0.012-0.125
				c0.002-0.039,0.008-0.076,0.006-0.109c0-0.034,0.002-0.065,0.006-0.095c-0.002-0.028-0.004-0.055-0.002-0.079
				c0.008-0.194,0.014-0.351,0.014-0.506c0.002-0.155,0-0.326-0.031-0.512C450.12,9.379,449.958,8.964,450.099,8.616z"/>
		</g>
		<g>
			<path fill="#931F1D" d="M446.335,8.764c0.107-0.095,0.137-0.267,0.088-0.513c-0.047-0.246-0.17-0.565-0.381-0.939
				c-0.102-0.19-0.23-0.391-0.381-0.604c-0.146-0.217-0.32-0.442-0.52-0.677c-0.395-0.472-0.891-0.983-1.527-1.485
				c-0.633-0.502-1.404-1.003-2.35-1.404c-0.941-0.391-2.072-0.682-3.293-0.692c-1.221-0.027-2.492,0.232-3.666,0.688
				c-1.17,0.461-2.252,1.104-3.229,1.841c-0.984,0.733-2.135,1.791-3.307,3.089c-1.178,1.295-2.385,2.826-3.617,4.457
				c-1.234,1.627-2.494,3.364-3.854,4.99c-0.34,0.404-0.686,0.803-1.039,1.183c-0.18,0.189-0.357,0.379-0.539,0.559
				c-0.094,0.096-0.182,0.178-0.268,0.258c-0.088,0.08-0.174,0.164-0.264,0.242c-0.73,0.625-1.566,1.166-2.469,1.576
				c-0.896,0.42-1.848,0.729-2.801,0.922c-0.955,0.197-1.91,0.301-2.828,0.297c-1.84,0.002-3.518-0.375-4.842-0.928
				c-0.666-0.271-1.244-0.586-1.729-0.902c-0.492-0.309-0.883-0.629-1.207-0.893c-0.311-0.275-0.559-0.494-0.719-0.652
				c-0.168-0.152-0.27-0.225-0.297-0.207c-0.023,0.018,0.02,0.129,0.127,0.332c0.1,0.205,0.287,0.484,0.543,0.836
				c0.271,0.338,0.615,0.75,1.08,1.164c0.457,0.422,1.023,0.857,1.703,1.258c1.352,0.809,3.156,1.473,5.229,1.715
				c1.035,0.127,2.133,0.137,3.258,0.031c1.127-0.105,2.283-0.342,3.42-0.734c1.141-0.385,2.256-0.943,3.289-1.666
				c0.129-0.092,0.252-0.189,0.379-0.285c0.129-0.096,0.252-0.191,0.363-0.285c0.232-0.189,0.455-0.383,0.676-0.578
				c0.441-0.391,0.861-0.791,1.27-1.195c1.627-1.62,3.061-3.282,4.404-4.794c1.34-1.517,2.586-2.889,3.711-4
				c1.121-1.117,2.121-1.963,2.891-2.538c0.77-0.582,1.537-1.052,2.281-1.395c0.744-0.334,1.461-0.541,2.158-0.606
				c0.695-0.078,1.381-0.011,2.045,0.129c0.664,0.149,1.303,0.38,1.889,0.635c0.588,0.252,1.125,0.532,1.604,0.788
				c0.242,0.126,0.469,0.246,0.678,0.362c0.201,0.104,0.398,0.205,0.592,0.305C445.618,8.805,446.114,8.958,446.335,8.764z"/>
		</g>
		<g>
			<path fill="#931F1D" d="M433.554,17.979c-0.393-0.053-0.75,1.095-1.605,2.534c-0.109,0.178-0.221,0.361-0.355,0.537
				c-0.121,0.186-0.273,0.352-0.418,0.533c-0.309,0.342-0.658,0.668-1.066,0.949c-0.811,0.566-1.869,0.936-3.102,1.049
				c-0.613,0.059-1.447,0.074-2.439-0.047c-0.988-0.123-2.131-0.375-3.314-0.803c-1.168-0.41-2.426-1.049-3.736-1.689
				s-2.689-1.316-4.145-1.76c-1.445-0.455-2.943-0.662-4.295-0.574c-1.363,0.078-2.514,0.395-3.471,0.615
				c-0.479,0.121-0.912,0.209-1.295,0.293c-0.383,0.072-0.717,0.123-0.992,0.172c-0.551,0.053-0.869,0.102-0.871,0.143
				c-0.002,0.037,0.309,0.086,0.881,0.146c0.285,0.008,0.635,0.018,1.039,0.006c0.4-0.021,0.859-0.049,1.354-0.102
				c0.99-0.092,2.146-0.252,3.354-0.178c1.215,0.061,2.502,0.381,3.75,0.916c1.254,0.523,2.479,1.268,3.719,2.016
				s2.484,1.52,3.818,2.105c1.311,0.586,2.621,0.969,3.813,1.18c1.193,0.207,2.268,0.227,3.092,0.148s1.639-0.264,2.391-0.564
				s1.438-0.719,2-1.209c0.564-0.49,1.004-1.043,1.338-1.586c0.154-0.279,0.309-0.545,0.412-0.813
				c0.123-0.264,0.207-0.525,0.281-0.773c0.295-0.994,0.309-1.811,0.26-2.363C433.874,18.302,433.735,17.998,433.554,17.979z"/>
		</g>
		<g>
			<path fill="#931F1D" d="M410.733,27.046c0.004-0.119-0.104-0.24-0.301-0.355c-0.098-0.059-0.217-0.115-0.355-0.172
				c-0.137-0.059-0.293-0.121-0.465-0.178c-0.688-0.238-1.609-0.502-2.6-0.838c-0.492-0.174-1.295-0.447-2.172-0.898
				c-0.881-0.445-1.818-1.088-2.643-1.787c-0.209-0.172-0.4-0.357-0.598-0.529c-0.086-0.086-0.172-0.17-0.258-0.256
				c-0.082-0.086-0.158-0.182-0.238-0.27c-0.305-0.365-0.576-0.73-0.818-1.031c-0.244-0.305-0.467-0.541-0.635-0.689
				c-0.176-0.146-0.281-0.215-0.301-0.195c-0.018,0.016,0.037,0.129,0.145,0.313c0.102,0.189,0.242,0.461,0.4,0.803
				c0.16,0.344,0.342,0.754,0.586,1.205c0.064,0.113,0.127,0.229,0.201,0.346c0.076,0.113,0.156,0.234,0.238,0.35
				c0.168,0.215,0.334,0.443,0.521,0.662c0.734,0.885,1.65,1.748,2.578,2.375c0.924,0.633,1.83,1.037,2.4,1.238
				c1.15,0.391,2.256,0.486,3.041,0.42c0.197-0.02,0.373-0.041,0.529-0.072c0.156-0.037,0.289-0.078,0.398-0.123
				C410.608,27.272,410.728,27.167,410.733,27.046z"/>
		</g>
		<g>
			<path fill="#931F1D" d="M446.952,26.011c-0.232-0.178-0.717,0.008-1.42,0.418c-0.186,0.113-0.375,0.227-0.568,0.344
				c-0.201,0.129-0.418,0.266-0.65,0.408c-0.459,0.287-0.975,0.604-1.543,0.895c-0.568,0.293-1.188,0.566-1.838,0.762
				c-0.654,0.184-1.332,0.297-2.033,0.268c-0.697-0.018-1.428-0.176-2.195-0.459c-0.766-0.291-1.566-0.707-2.375-1.236
				c-0.809-0.52-1.865-1.299-3.064-2.336c-1.201-1.033-2.539-2.32-3.982-3.742c-1.447-1.42-2.994-2.982-4.73-4.49
				c-0.438-0.376-0.885-0.748-1.352-1.108c-0.236-0.18-0.471-0.358-0.717-0.532c-0.117-0.086-0.248-0.174-0.383-0.262
				c-0.133-0.086-0.264-0.176-0.398-0.259c-1.084-0.652-2.238-1.137-3.404-1.443c-1.164-0.316-2.336-0.476-3.469-0.504
				c-1.133-0.03-2.23,0.054-3.256,0.251c-2.053,0.383-3.811,1.17-5.104,2.072c-0.648,0.447-1.186,0.921-1.611,1.376
				c-0.434,0.446-0.746,0.882-0.99,1.24c-0.23,0.37-0.395,0.662-0.479,0.876c-0.09,0.211-0.121,0.328-0.092,0.346
				c0.023,0.014,0.117-0.068,0.271-0.232c0.146-0.17,0.377-0.407,0.664-0.706c0.303-0.287,0.67-0.635,1.139-0.979
				c0.461-0.352,1.016-0.706,1.662-1.024c1.283-0.644,2.936-1.136,4.773-1.259c0.918-0.066,1.881-0.028,2.848,0.104
				c0.969,0.131,1.941,0.375,2.867,0.733c0.932,0.35,1.805,0.835,2.58,1.411c0.096,0.073,0.188,0.151,0.281,0.226
				c0.092,0.073,0.186,0.15,0.285,0.239c0.193,0.168,0.385,0.345,0.576,0.521c0.383,0.356,0.756,0.73,1.123,1.113
				c1.469,1.531,2.85,3.18,4.195,4.721c1.344,1.545,2.656,2.992,3.922,4.205c1.26,1.215,2.482,2.193,3.518,2.857
				c1.027,0.67,2.152,1.236,3.354,1.617c1.203,0.375,2.49,0.547,3.705,0.436c1.217-0.092,2.324-0.459,3.236-0.914
				c0.914-0.463,1.648-1.016,2.244-1.559c0.598-0.545,1.057-1.088,1.416-1.586c0.182-0.248,0.34-0.484,0.471-0.711
				c0.135-0.223,0.248-0.432,0.336-0.629c0.184-0.387,0.283-0.715,0.313-0.963C447.108,26.269,447.067,26.099,446.952,26.011z"/>
		</g>
		<g>
			<path fill="#931F1D" d="M433.544,17.688c0.18-0.032,0.295-0.344,0.33-0.905c0.01-0.557-0.063-1.369-0.428-2.342
				c-0.092-0.242-0.195-0.496-0.336-0.751c-0.125-0.261-0.295-0.516-0.471-0.782c-0.371-0.52-0.85-1.041-1.447-1.491
				c-0.598-0.451-1.311-0.823-2.082-1.071c-0.771-0.25-1.598-0.379-2.426-0.401c-0.826-0.023-1.898,0.07-3.072,0.357
				c-1.174,0.29-2.455,0.76-3.723,1.431c-1.291,0.674-2.477,1.528-3.662,2.357c-1.184,0.829-2.352,1.652-3.564,2.258
				c-1.207,0.616-2.467,1.022-3.67,1.165c-1.197,0.154-2.361,0.073-3.355,0.05c-0.498-0.019-0.957-0.014-1.359-0.007
				c-0.404,0.017-0.754,0.051-1.037,0.08c-0.566,0.102-0.873,0.177-0.867,0.217c0.004,0.036,0.324,0.059,0.877,0.072
				c0.279,0.029,0.617,0.054,1.004,0.1c0.391,0.056,0.828,0.115,1.314,0.202c0.973,0.155,2.141,0.391,3.504,0.377
				c1.354-0.006,2.83-0.312,4.238-0.861c1.418-0.54,2.746-1.304,4.01-2.032c1.26-0.728,2.471-1.448,3.607-1.937
				c1.15-0.505,2.275-0.833,3.252-1.022c0.98-0.187,1.814-0.226,2.43-0.21c1.238,0.029,2.322,0.324,3.17,0.835
				c0.428,0.252,0.801,0.556,1.133,0.875c0.156,0.17,0.32,0.327,0.453,0.503c0.148,0.166,0.271,0.341,0.395,0.51
				C432.718,16.648,433.155,17.768,433.544,17.688z"/>
		</g>
		<path fill="#931F1D" d="M440.247,20.231c-1.49,0.051-2.742-1.086-2.795-2.539c-0.051-1.454,1.115-2.673,2.607-2.724
			c1.49-0.051,2.742,1.086,2.795,2.54C442.905,18.962,441.739,20.181,440.247,20.231z"/>
		<path fill="#931F1D" d="M396.333,21.589c-1.338,0.045-2.461-0.975-2.508-2.279c-0.047-1.303,1-2.397,2.338-2.442
			s2.461,0.975,2.508,2.278C398.718,20.45,397.671,21.544,396.333,21.589z"/>
		<g>
			<path fill="#931F1D" d="M410.136,10.373c-0.014-0.119-0.141-0.217-0.365-0.292c-0.113-0.038-0.248-0.069-0.406-0.094
				c-0.158-0.021-0.336-0.031-0.533-0.036c-0.787-0.014-1.885,0.156-3.004,0.625c-0.555,0.238-1.43,0.703-2.307,1.396
				c-0.883,0.687-1.738,1.608-2.41,2.54c-0.17,0.231-0.32,0.47-0.473,0.696c-0.074,0.12-0.145,0.247-0.215,0.366
				c-0.066,0.121-0.117,0.242-0.176,0.358c-0.211,0.467-0.363,0.891-0.498,1.243c-0.133,0.352-0.252,0.632-0.338,0.829
				c-0.092,0.191-0.137,0.31-0.115,0.327c0.02,0.015,0.117-0.062,0.279-0.219c0.156-0.161,0.359-0.413,0.58-0.732
				c0.221-0.318,0.463-0.701,0.744-1.086c0.072-0.093,0.141-0.193,0.219-0.285c0.078-0.09,0.158-0.182,0.238-0.273
				c0.184-0.185,0.363-0.382,0.559-0.568c0.775-0.752,1.668-1.456,2.516-1.958c0.844-0.509,1.627-0.834,2.105-1.042
				c0.963-0.402,1.863-0.727,2.531-1.012c0.168-0.069,0.318-0.141,0.451-0.21c0.135-0.064,0.25-0.129,0.344-0.194
				C410.05,10.621,410.149,10.492,410.136,10.373z"/>
		</g>
	</g>
</g>
</svg>
