<?xml version="1.0" encoding="utf-8"?>
<!-- Generator: Adobe Illustrator 16.0.0, SVG Export Plug-In . SVG Version: 6.00 Build 0)  -->
<!DOCTYPE svg PUBLIC "-//W3C//DTD SVG 1.1//EN" "http://www.w3.org/Graphics/SVG/1.1/DTD/svg11.dtd">
<svg version="1.1"
	 id="svg3049" xmlns:sodipodi="http://sodipodi.sourceforge.net/DTD/sodipodi-0.dtd" xmlns:cc="http://creativecommons.org/ns#" xmlns:dc="http://purl.org/dc/elements/1.1/" xmlns:inkscape="http://www.inkscape.org/namespaces/inkscape" xmlns:rdf="http://www.w3.org/1999/02/22-rdf-syntax-ns#" xmlns:svg="http://www.w3.org/2000/svg" inkscape:version="0.48.5 r10040" sodipodi:docname="Laptop-PC-Smartphone.svg"
	 xmlns="http://www.w3.org/2000/svg" xmlns:xlink="http://www.w3.org/1999/xlink" x="0px" y="0px" width="500px" height="300px"
	 viewBox="0 54.5 300 182" enable-background="new 0 54.5 300 182" xml:space="preserve">
<sodipodi:namedview  id="namedview3081" guidetolerance="10" pagecolor="#ffffff" showgrid="false" bordercolor="#666666" objecttolerance="10" inkscape:cy="29.629913" inkscape:cx="138.48395" borderopacity="1" inkscape:zoom="1.9459579" gridtolerance="10" inkscape:object-paths="true" inkscape:window-y="-8" inkscape:snap-grids="false" inkscape:window-width="1366" inkscape:snap-to-guides="false" inkscape:window-height="705" inkscape:pageshadow="2" inkscape:pageopacity="0" inkscape:snap-global="true" inkscape:snap-nodes="true" inkscape:window-maximized="1" inkscape:window-x="-8" inkscape:current-layer="svg3049">
	</sodipodi:namedview>
<path id="path3055" sodipodi:nodetypes="ccccccccsscscccccssssscsscccccsccccccccccccscsccsscccccccccccccccccccccccccssssccscsccsccccccccsscscccccccccccssscsssssccsccccccscsssscssccccssssssscss" inkscape:connector-curvature="0" fill="#1A1C34" d="
	M202.8,185.7c-3.843-2.726-31.58-3.737-29.93-1.937c0.827,1.086,14.362,0.234,22.554,1.417 M179.55,188.85l-8.7,0.15l1.05-7.5
	c0.9-6.75,0.097-8.972-2.304-8.072c-1.95,0.75-1.596,3.572-0.996,6.723c0.75,3.75,0.3,4.35-2.25,4.35c-2.7,0-3.149-0.6-2.399-4.35
	c0.6-3,0.408-6.285-1.092-6.886c-1.8-0.6-2.358,2.386-2.358,8.235v7.5h-6h-6v-8.25v-8.25H186c24,0,37.5,0.6,37.5,1.5
	c0,0.75,1.35,1.5,3,1.5c2.85,0,3-1.05,3-18.75c0-16.05,0.3-18.75,2.399-18.75c1.2,0,1.801,0.6,1.351,1.5
	c-0.45,0.75-0.15,1.5,0.6,1.5c0.9,0,1.65-0.75,1.65-1.5c0-0.9,5.7-2.498,13.95-2.498l14.416-0.227l-9.309-1.269
	c-13.054-0.948-23.019-1.679-26.318,2.521L225,143.25v-3.9c0-6.6,2.1-7.35,22.5-7.05c13.2,0.15,16.8,0.45,12,1.2l-12.84,0.51
	l12.54,0.69c3.899,0.15,8.153,1.054,7.554,1.954c7.959,0.325,21.188,0.988,24,1.5L291,172.5V207h-23.25H244.5v4.5v4.5h23.7
	c21.149,0,24.149-0.3,26.25-2.7c2.25-2.399,2.55-7.5,2.55-40.2c0-27.6-0.45-38.25-1.8-40.05c-1.65-2.25-6-2.7-33.45-3.3
	C221.7,129,223.5,128.1,223.5,148.5c0,9.6-0.129,12.617,0.777,13.146c1.118,0.654,1.459,1.964,1.377,2.77
	c-0.272,1.066-1.978,0.779-2.51,0.449c-1.008-0.603-1.145-2.115-5.795-1.665c-2.85,0.149-19.35,0-36.899-0.601L148.65,161.7
	l-0.449-16.8l-0.45-16.65l-30.3-0.45L87,127.5c0-14.85-0.771-30.779-0.771-45.629c0,0,137.001-0.66,136.821-0.871H246v24v24h3.75
	h3.75l-0.3-27.45l-0.45-27.3l-174,0.15l0.108,53.044c0,0-27.021,0.337-63.108,0.806v36.3v36.3L8.4,209.4
	c-7.05,8.1-7.199,8.55-4.649,10.5C6,221.55,20.7,222,81.9,222c41.4,0,76.351-0.45,77.7-0.9c1.351-0.449,2.4-1.5,2.4-2.25
	s-34.05-1.35-79.8-1.35H2.25l4.8-3.15c3.75-2.399,5.4-2.699,7.65-1.5c2.25,1.2,3.149,1.051,3.899-0.6c0.45-1.2,2.4-2.25,4.2-2.25
	c1.95,0,4.35-0.6,5.55-1.35c1.351-0.9,0.45-1.2-2.7-0.9c-2.699,0.15-5.55,1.05-6.6,2.1c-3.9,3.9-4.723,0.039-4.723,0.039
	l6.614-8.468l121.691-1.274c2.733,3.838,8.663,11.354,8.663,11.354c-3.761,0.309-6.096-1.8-7.746-4.05l-3.15-4.05l-0.899,3.75
	c-0.9,3.449-1.351,3.6-16.5,4.05c-8.7,0.149-25.351,0.3-37.05,0.3c-16.2,0-21.45,0.45-21.45,1.8c0,2.4,31.649,2.7,33.3,0.45
	c0.75-1.05,1.2-1.05,1.2,0c0,0.9,7.5,1.35,19.8,1.2c16.8-0.15,20.1-0.601,20.4-2.55c0.6-3,4.649-3.15,5.699-0.15
	c0.75,1.65,1.65,1.8,3.75,0.75c2.101-1.2,9.716,3.687,13.016,5.336L154.5,207.75l-6-8.166v-8.334l23.7-0.15
	c18.917-0.641,35.14-2.168,30.6-5.182 M249.75,79.5c0.45,0.75,0.149,1.5-0.601,1.5c-0.899,0-1.649-0.75-1.649-1.5
	c0-0.9,0.3-1.5,0.6-1.5C248.55,78,249.3,78.6,249.75,79.5z M73.5,130.5c0,0.75-0.601,1.5-1.5,1.5c-0.75,0-1.5-0.75-1.5-1.5
	c0-0.9,0.75-1.5,1.5-1.5C72.9,129,73.5,129.6,73.5,130.5z M85.2,130.05c-1.5,0.3-3.9,0.3-5.25,0c-1.5-0.45-0.301-0.75,2.55-0.75
	C85.35,129.3,86.55,129.6,85.2,130.05z M21.259,132.763L142.2,132.75c0,0,0.012,63.489,0,63.75H21.013
	C20.804,196.557,21.259,132.763,21.259,132.763z M160.5,168.15c0,0.899-2.101,1.35-5.4,0.899c-7.649-1.05-8.1-2.55-0.899-2.55
	C157.8,166.5,160.5,167.25,160.5,168.15z M167.46,167.769c0.016,0.835-0.248,1.421-1.328,1.421c-1.193,0-1.471-0.652-1.478-1.383
	c0.02-0.859,0.473-1.318,1.441-1.318C166.88,166.488,167.449,167.154,167.46,167.769z M218.25,168.3c0.6,0.45-9.9,0.9-23.25,0.75
	c-13.351,0-23.55-0.45-22.65-0.899C174.3,166.95,217.05,167.1,218.25,168.3z M262.5,211.5c0,0.75-0.601,1.5-1.5,1.5
	c-0.75,0-1.5-0.75-1.5-1.5c0-0.9,0.75-1.5,1.5-1.5C261.9,210,262.5,210.6,262.5,211.5z M285,211.5c0,0.75-0.985,1.5-1.735,1.5
	c-0.9,0-1.719-0.441-2.015-1.5c-0.064-0.9,0.612-2.039,1.813-2.039C284.412,209.461,285,210.6,285,211.5z"/>
<path id="path3057" sodipodi:nodetypes="scccccccsccscscccccccsccsssssssscsss" inkscape:connector-curvature="0" fill="#1A1C34" d="
	M212.653,176.758c-0.45,1.051-0.286,13.621-0.137,26.371l-0.095,23.25l15.6-0.054h15.54l0.064-24.819l0.146-25.131h-15.15
	C220.356,176.743,213.103,175.708,212.653,176.758L212.653,176.758z M223.221,178.625c-1.05,0.3-3.15,0.3-4.5,0
	c-1.5-0.45-0.601-0.75,1.8-0.75C223.071,177.875,224.12,178.175,223.221,178.625z M232.258,181.959l10.013,0.116v18.75v18.75h-14.25
	h-14.25v-18.75v-18.75l13.127-0.077c4.95-0.029,2.595-0.397,2.595-0.397c-3.787-3.067,3.399-3.772,0.047,0.013
	C229.647,181.966,229.648,181.93,232.258,181.959L232.258,181.959z M219.771,222.575c0,0.75-0.6,1.5-1.5,1.5
	c-0.75,0-1.5-0.75-1.5-1.5c0-0.9,0.75-1.5,1.5-1.5C219.171,221.075,219.771,221.675,219.771,222.575z M239.108,222.575
	c0,0.695-0.573,1.063-1.255,1.228c-0.449,0-1.201-0.344-1.322-1.119c-0.134-0.852,0.34-1.608,1.09-1.608
	C238.521,221.075,239.108,221.675,239.108,222.575L239.108,222.575z"/>
<path id="path3059" sodipodi:nodetypes="ccsc" inkscape:connector-curvature="0" fill="#1A1C34" d="M148.46,184.628
	c1.357,1.214,11.658,0.024,12.345-1.002c0.9-0.45-4.205-0.326-6.305-0.326C152.4,183.3,147.41,184.178,148.46,184.628z"/>
<path id="path3061" inkscape:connector-curvature="0" fill="#1A1C34" d="M22.5,205.8c0,0.75,1.8,0.75,4.2,0.3
	c5.85-1.5,6.149-2.25,0.6-1.8C24.6,204.45,22.5,205.2,22.5,205.8z"/>
<path id="path3063" inkscape:connector-curvature="0" fill="#1A1C34" d="M71.25,205.35c-1.351,2.4,4.05,4.351,10.8,4.051
	c5.55-0.301,11.4-2.4,6.6-2.4c-1.05,0-1.35-0.6-0.899-1.5s-0.15-1.05-1.5-0.45c-1.95,0.75-2.101,1.05-0.45,2.101
	c1.2,0.899,1.35,1.35,0.15,1.35c-3.45,0-6.45-1.8-5.4-3.45c0.45-0.899,0.15-1.05-0.9-0.45c-0.899,0.601-1.35,1.801-0.899,2.551
	c1.05,1.5-0.9,1.8-4.5,0.449c-1.95-0.75-2.101-1.199-0.45-2.25c1.35-0.899,1.35-1.35,0.15-1.35C73.05,204,71.85,204.6,71.25,205.35z
	"/>
<path id="path3065" inkscape:connector-curvature="0" fill="#1A1C34" d="M93,205.5c-1.95,1.35-1.95,1.5,0,1.5
	c1.8,0,1.8,0.3,0.149,1.35c-1.35,0.9-1.5,1.65-0.3,2.25c0.9,0.601,1.65,0.45,1.65-0.449c0-0.9,1.2-1.2,2.7-0.75
	c2.399,0.75,2.399,0.75,0-1.351c-1.5-1.2-2.25-2.55-1.65-3C96.9,203.55,95.55,203.85,93,205.5z"/>
<path id="path3067" inkscape:connector-curvature="0" fill="#1A1C34" d="M106.5,206.25c-1.05,1.35-1.5,2.7-0.9,3.3
	c0.45,0.45,0.9,0,0.9-1.2c0-1.8,0.3-1.8,1.35,0c0.9,1.351,1.65,1.5,2.25,0.301c0.601-0.9,0.15-1.65-0.899-1.65
	c-1.351,0-1.351-0.45,0.3-1.5c1.2-0.75,1.5-1.5,0.6-1.5C109.2,204,107.55,205.05,106.5,206.25z"/>
<path id="path3069" inkscape:connector-curvature="0" fill="#1A1C34" d="M114.9,205.2c-2.1,3.45,3.75,5.399,6.601,2.1
	c1.05-1.2,1.05-1.35-0.15-0.45c-2.1,1.65-6.149,0.45-4.95-1.5c0.45-0.75,0.45-1.35,0-1.35C115.95,204,115.35,204.6,114.9,205.2z"/>
<path id="path3071" inkscape:connector-curvature="0" fill="#1A1C34" d="M133.95,206.7c0,1.5,1.05,2.85,1.949,2.85
	c1.351,0,1.5-0.75,0.45-2.85c-0.75-1.5-1.8-2.7-2.1-2.7S133.8,205.2,133.95,206.7z"/>
<path id="path3073" inkscape:connector-curvature="0" fill="#1A1C34" d="M33.45,207.45c0,1.2,0.899,2.1,2.1,2.1
	c1.35,0,1.5-0.6,0.3-2.1c-0.899-1.05-1.8-1.95-2.1-1.95C33.6,205.5,33.45,206.4,33.45,207.45z"/>
<path id="path3075" inkscape:connector-curvature="0" fill="#1A1C34" d="M40.95,206.55c1.05,1.65-4.95,5.4-8.101,4.95
	c-5.399-0.75-9.45,0-7.8,1.65C27.45,215.55,63,215.85,63,213.3c0-0.899-1.65-1.8-3.601-1.8c-1.949,0-4.05-0.9-4.35-1.95
	c-0.6-1.5-0.9-1.5-0.9,0C54,210.9,51.45,211.5,46.2,211.5c-6.9,0-7.5-0.3-4.95-1.95c2.1-1.649,2.25-2.399,0.75-3.3
	C40.8,205.5,40.35,205.65,40.95,206.55z"/>
<path id="path3077" inkscape:connector-curvature="0" fill="#1A1C34" d="M65.1,207.6c1.65,1.351,3.601,2.4,4.5,2.4
	c1.8,0,1.05-0.75-3.6-2.85C62.4,205.5,62.4,205.5,65.1,207.6z"/>
<path id="path3079" inkscape:connector-curvature="0" fill="#1A1C34" d="M125.7,209.55c0.899,0.3,2.699,0.3,3.75,0
	c0.899-0.45,0.149-0.75-1.95-0.75C125.4,208.8,124.65,209.1,125.7,209.55z"/>
</svg>
